<svg xmlns="http://www.w3.org/2000/svg" width="2154" height="1368" viewBox="0 0 2154 1368">
  <g fill="none" fill-rule="evenodd" transform="translate(-.695 3.724)">
    <g transform="translate(0 57.8)">
      <polyline fill="#01BA5C" fill-rule="nonzero" points="1766.418 0 391.181 0 0 1307.2 2157.599 1307.2 1766.418 0"/>
      <polygon fill="#00AE55" points="71.398 1199.476 2083.342 1199.476 2115.843 1306.476 39.096 1306.476"/>
      <polygon fill="#01BA5C" points="122.685 1020.476 2032.17 1020.476 2084.866 1199.476 69.982 1199.476"/>
      <polygon fill="#00AE55" points="170.576 857.476 1983.097 857.476 2033.221 1020.476 121.758 1020.476"/>
      <polygon fill="#01BA5C" points="214.434 709.476 1941.624 709.476 1984.711 857.476 171.248 857.476"/>
      <polygon fill="#00AE55" points="251.713 574.476 1902.815 574.476 1942.318 709.476 215.318 709.476"/>
      <polygon fill="#01BA5C" points="288.114 451.476 1866.678 451.476 1903.108 574.476 253.318 574.476"/>
      <polygon fill="#00AE55" points="321.874 339.476 1832.937 339.476 1865.928 451.476 289.34 451.476"/>
      <polygon fill="#01BA5C" points="351.793 237.476 1804.034 237.476 1831.111 339.476 325.111 339.476"/>
      <polygon fill="#00AE55" fill-rule="nonzero" points="378.819 144.476 1778.022 144.476 1804.111 237.476 353.111 237.476"/>
      <polygon fill="#01BA5C" points="403.695 58.476 1753.695 58.476 1776.63 144.476 380.496 144.476"/>
      <polygon fill="#01BA5C" points="403.695 58.476 1753.695 58.476 1776.63 144.476 380.496 144.476"/>
    </g>
    <g transform="translate(891.695)">
      <polygon fill="#000" fill-rule="nonzero" points="0 0 30 57.478 345 57.478 375 0" opacity=".102" transform="translate(0 57.798)"/>
      <g transform="translate(32.533)">
        <path fill="#CECECE" fill-rule="nonzero" d="M8.01680995,4.78814815 L15.2319389,8.88962963 L15.2319389,17.0925926 L8.01680995,21.1940741 L0.801680995,17.0925926 L0.801680995,8.88962963 L8.01680995,4.78814815 M8.01680995,3.7837037 L0,8.38740741 L0,17.5948148 L8.01680995,22.1985185 L16.0336199,17.5948148 L16.0336199,8.38740741 L8.01680995,3.7837037 L8.01680995,3.7837037 Z"/>
        <path fill="#CECECE" fill-rule="nonzero" d="M23.2487488,4.78814815 L30.4638778,8.88962963 L30.4638778,17.0925926 L23.2487488,21.1940741 L16.0336199,17.0925926 L16.0336199,8.88962963 L23.2487488,4.78814815 M23.2487488,3.7837037 L15.2319389,8.38740741 L15.2319389,17.5948148 L23.2487488,22.1985185 L31.2655588,17.5948148 L31.2655588,8.38740741 L23.2487488,3.7837037 L23.2487488,3.7837037 Z"/>
        <path fill="#CECECE" fill-rule="nonzero" d="M38.4806877,4.78814815 L45.6958167,8.88962963 L45.6958167,17.0925926 L38.4806877,21.1940741 L31.2655588,17.0925926 L31.2655588,8.88962963 L38.4806877,4.78814815 M38.4806877,3.7837037 L30.4638778,8.38740741 L30.4638778,17.5948148 L38.4806877,22.1985185 L46.4974977,17.5948148 L46.4974977,8.38740741 L38.4806877,3.7837037 L38.4806877,3.7837037 Z"/>
        <path fill="#CECECE" fill-rule="nonzero" d="M53.7126267,4.78814815 L60.9277556,8.88962963 L60.9277556,17.0925926 L53.7126267,21.1940741 L46.4974977,17.0925926 L46.4974977,8.88962963 L53.7126267,4.78814815 M53.7126267,3.7837037 L45.6958167,8.38740741 L45.6958167,17.5948148 L53.7126267,22.1985185 L61.7294366,17.5948148 L61.7294366,8.38740741 L53.7126267,3.7837037 L53.7126267,3.7837037 Z"/>
        <path fill="#CECECE" fill-rule="nonzero" d="M68.9445656,4.78814815 L76.1596945,8.88962963 L76.1596945,17.0925926 L68.9445656,21.1940741 L61.7294366,17.0925926 L61.7294366,8.88962963 L68.9445656,4.78814815 M68.9445656,3.7837037 L60.9277556,8.38740741 L60.9277556,17.5948148 L68.9445656,22.1985185 L76.9613756,17.5948148 L76.9613756,8.38740741 L68.9445656,3.7837037 L68.9445656,3.7837037 Z"/>
        <path fill="#CECECE" fill-rule="nonzero" d="M84.1765045,4.78814815 L91.3916334,8.88962963 L91.3916334,17.0925926 L84.1765045,21.1940741 L76.9613756,17.0925926 L76.9613756,8.88962963 L84.1765045,4.78814815 M84.1765045,3.7837037 L76.1596945,8.38740741 L76.1596945,17.5948148 L84.1765045,22.1985185 L92.1933144,17.5948148 L92.1933144,8.38740741 L84.1765045,3.7837037 L84.1765045,3.7837037 Z"/>
        <path fill="#CECECE" fill-rule="nonzero" d="M99.4084434,4.78814815 L106.623573,8.88962963 L106.623573,17.0925926 L99.4084434,21.1940741 L92.1933144,17.0925926 L92.1933144,8.88962963 L99.4084434,4.78814815 M99.4084434,3.7837037 L91.3916334,8.38740741 L91.3916334,17.5948148 L99.4084434,22.1985185 L107.425253,17.5948148 L107.425253,8.38740741 L99.4084434,3.7837037 L99.4084434,3.7837037 Z"/>
        <path fill="#CECECE" fill-rule="nonzero" d="M114.640382,4.78814815 L121.855512,8.88962963 L121.855512,17.0925926 L114.640382,21.1940741 L107.425253,17.0925926 L107.425253,8.88962963 L114.640382,4.78814815 M114.640382,3.7837037 L106.623573,8.38740741 L106.623573,17.5948148 L114.640382,22.1985185 L122.657193,17.5948148 L122.657193,8.38740741 L114.640382,3.7837037 L114.640382,3.7837037 Z"/>
        <path fill="#CECECE" fill-rule="nonzero" d="M129.872321,4.78814815 L137.08745,8.88962963 L137.08745,17.0925926 L129.872321,21.1940741 L122.657193,17.0925926 L122.657193,8.88962963 L129.872321,4.78814815 M129.872321,3.7837037 L121.855512,8.38740741 L121.855512,17.5948148 L129.872321,22.1985185 L137.889132,17.5948148 L137.889132,8.38740741 L129.872321,3.7837037 L129.872321,3.7837037 Z"/>
        <path fill="#CECECE" fill-rule="nonzero" d="M145.10426,4.78814815 L152.319389,8.88962963 L152.319389,17.0925926 L145.10426,21.1940741 L137.889132,17.0925926 L137.889132,8.88962963 L145.10426,4.78814815 M145.10426,3.7837037 L137.08745,8.38740741 L137.08745,17.5948148 L145.10426,22.1985185 L153.12107,17.5948148 L153.12107,8.38740741 L145.10426,3.7837037 L145.10426,3.7837037 Z"/>
        <path fill="#CECECE" fill-rule="nonzero" d="M160.336199,4.78814815 L167.551328,8.88962963 L167.551328,17.0925926 L160.336199,21.1940741 L153.12107,17.0925926 L153.12107,8.88962963 L160.336199,4.78814815 M160.336199,3.7837037 L152.319389,8.38740741 L152.319389,17.5948148 L160.336199,22.1985185 L168.353009,17.5948148 L168.353009,8.38740741 L160.336199,3.7837037 L160.336199,3.7837037 Z"/>
        <path fill="#CECECE" fill-rule="nonzero" d="M175.568138,4.78814815 L182.783267,8.88962963 L182.783267,17.0925926 L175.568138,21.1940741 L168.353009,17.0925926 L168.353009,8.88962963 L175.568138,4.78814815 M175.568138,3.7837037 L167.551328,8.38740741 L167.551328,17.5948148 L175.568138,22.1985185 L183.584948,17.5948148 L183.584948,8.38740741 L175.568138,3.7837037 L175.568138,3.7837037 Z"/>
        <path fill="#CECECE" fill-rule="nonzero" d="M190.800076,4.78814815 L198.015206,8.88962963 L198.015206,17.0925926 L190.800076,21.1940741 L183.584948,17.0925926 L183.584948,8.88962963 L190.800076,4.78814815 M190.800076,3.7837037 L182.783267,8.38740741 L182.783267,17.5948148 L190.800076,22.1985185 L198.816887,17.5948148 L198.816887,8.38740741 L190.800076,3.7837037 L190.800076,3.7837037 Z"/>
        <path fill="#CECECE" fill-rule="nonzero" d="M206.032016,4.78814815 L213.247145,8.88962963 L213.247145,17.0925926 L206.032016,21.1940741 L198.816887,17.0925926 L198.816887,8.88962963 L206.032016,4.78814815 M206.032016,3.7837037 L198.015206,8.38740741 L198.015206,17.5948148 L206.032016,22.1985185 L214.048826,17.5948148 L214.048826,8.38740741 L206.032016,3.7837037 L206.032016,3.7837037 Z"/>
        <path fill="#CECECE" fill-rule="nonzero" d="M221.263955,4.78814815 L228.479083,8.88962963 L228.479083,17.0925926 L221.263955,21.1940741 L214.048826,17.0925926 L214.048826,8.88962963 L221.263955,4.78814815 M221.263955,3.7837037 L213.247145,8.38740741 L213.247145,17.5948148 L221.263955,22.1985185 L229.280765,17.5948148 L229.280765,8.38740741 L221.263955,3.7837037 L221.263955,3.7837037 Z"/>
        <path fill="#CECECE" fill-rule="nonzero" d="M236.495894,4.78814815 L243.711022,8.88962963 L243.711022,17.0925926 L236.495894,21.1940741 L229.280765,17.0925926 L229.280765,8.88962963 L236.495894,4.78814815 M236.495894,3.7837037 L228.479083,8.38740741 L228.479083,17.5948148 L236.495894,22.1985185 L244.512703,17.5948148 L244.512703,8.38740741 L236.495894,3.7837037 L236.495894,3.7837037 Z"/>
        <path fill="#CECECE" fill-rule="nonzero" d="M251.727833,4.78814815 L258.942961,8.88962963 L258.942961,17.0925926 L251.727833,21.1940741 L244.512703,17.0925926 L244.512703,8.88962963 L251.727833,4.78814815 M251.727833,3.7837037 L243.711022,8.38740741 L243.711022,17.5948148 L251.727833,22.1985185 L259.744642,17.5948148 L259.744642,8.38740741 L251.727833,3.7837037 L251.727833,3.7837037 Z"/>
        <path fill="#CECECE" fill-rule="nonzero" d="M266.959771,4.78814815 L274.1749,8.88962963 L274.1749,17.0925926 L266.959771,21.1940741 L259.744642,17.0925926 L259.744642,8.88962963 L266.959771,4.78814815 M266.959771,3.7837037 L258.942961,8.38740741 L258.942961,17.5948148 L266.959771,22.1985185 L274.976581,17.5948148 L274.976581,8.38740741 L266.959771,3.7837037 L266.959771,3.7837037 Z"/>
        <path fill="#CECECE" fill-rule="nonzero" d="M282.19171,4.78814815 L289.40684,8.88962963 L289.40684,17.0925926 L282.19171,21.1940741 L274.976581,17.0925926 L274.976581,8.88962963 L282.19171,4.78814815 M282.19171,3.7837037 L274.1749,8.38740741 L274.1749,17.5948148 L282.19171,22.1985185 L290.20852,17.5948148 L290.20852,8.38740741 L282.19171,3.7837037 L282.19171,3.7837037 Z"/>
        <path fill="#CECECE" fill-rule="nonzero" d="M297.423649,4.78814815 L304.638778,8.88962963 L304.638778,17.0925926 L297.423649,21.1940741 L290.20852,17.0925926 L290.20852,8.88962963 L297.423649,4.78814815 M297.423649,3.7837037 L289.40684,8.38740741 L289.40684,17.5948148 L297.423649,22.1985185 L305.440459,17.5948148 L305.440459,8.38740741 L297.423649,3.7837037 L297.423649,3.7837037 Z"/>
        <g fill="#CECECE" fill-rule="nonzero" transform="translate(7.215 17.093)">
          <path d="M8.41765045,1.08814815 L15.6327794,5.18962963 L15.6327794,13.3925926 L8.41765045,17.4940741 L1.20252149,13.3925926 L1.20252149,5.18962963 L8.41765045,1.08814815 M8.41765045,0.167407407 L0.400840497,4.77111111 L0.400840497,13.9785185 L8.41765045,18.5822222 L16.4344604,13.9785185 L16.4344604,4.77111111 L8.41765045,0.167407407 L8.41765045,0.167407407 Z"/>
          <path d="M23.6495894,1.08814815 L30.8647183,5.18962963 L30.8647183,13.3925926 L23.6495894,17.4940741 L16.4344604,13.3925926 L16.4344604,5.18962963 L23.6495894,1.08814815 M23.6495894,0.167407407 L15.6327794,4.77111111 L15.6327794,13.9785185 L23.6495894,18.5822222 L31.6663993,13.9785185 L31.6663993,4.77111111 L23.6495894,0.167407407 L23.6495894,0.167407407 Z"/>
          <path d="M38.8815283,1.08814815 L46.0966572,5.18962963 L46.0966572,13.3925926 L38.8815283,17.4940741 L31.6663993,13.3925926 L31.6663993,5.18962963 L38.8815283,1.08814815 M38.8815283,0.167407407 L30.8647183,4.77111111 L30.8647183,13.9785185 L38.8815283,18.5822222 L46.8983382,13.9785185 L46.8983382,4.77111111 L38.8815283,0.167407407 L38.8815283,0.167407407 Z"/>
          <path d="M54.1134671,1.08814815 L61.3285962,5.18962963 L61.3285962,13.3925926 L54.1134671,17.4940741 L46.8983382,13.3925926 L46.8983382,5.18962963 L54.1134671,1.08814815 M54.1134671,0.167407407 L46.0966572,4.77111111 L46.0966572,13.9785185 L54.1134671,18.5822222 L62.1302771,13.9785185 L62.1302771,4.77111111 L54.1134671,0.167407407 L54.1134671,0.167407407 Z"/>
          <path d="M69.3454061,1.08814815 L76.560535,5.18962963 L76.560535,13.3925926 L69.3454061,17.4940741 L62.1302771,13.3925926 L62.1302771,5.18962963 L69.3454061,1.08814815 M69.3454061,0.167407407 L61.3285962,4.77111111 L61.3285962,13.9785185 L69.3454061,18.5822222 L77.362216,13.9785185 L77.362216,4.77111111 L69.3454061,0.167407407 L69.3454061,0.167407407 Z"/>
          <path d="M84.577345,1.08814815 L91.7924739,5.18962963 L91.7924739,13.3925926 L84.577345,17.4940741 L77.362216,13.3925926 L77.362216,5.18962963 L84.577345,1.08814815 M84.577345,0.167407407 L76.560535,4.77111111 L76.560535,13.9785185 L84.577345,18.5822222 L92.594155,13.9785185 L92.594155,4.77111111 L84.577345,0.167407407 L84.577345,0.167407407 Z"/>
          <path d="M99.8092839,1.08814815 L107.024412,5.18962963 L107.024412,13.3925926 L99.8092839,17.4940741 L92.594155,13.3925926 L92.594155,5.18962963 L99.8092839,1.08814815 M99.8092839,0.167407407 L91.7924739,4.77111111 L91.7924739,13.9785185 L99.8092839,18.5822222 L107.826093,13.9785185 L107.826093,4.77111111 L99.8092839,0.167407407 L99.8092839,0.167407407 Z"/>
          <path d="M115.041223,1.08814815 L122.256352,5.18962963 L122.256352,13.3925926 L115.041223,17.4940741 L107.826093,13.3925926 L107.826093,5.18962963 L115.041223,1.08814815 M115.041223,0.167407407 L107.024412,4.77111111 L107.024412,13.9785185 L115.041223,18.5822222 L123.058032,13.9785185 L123.058032,4.77111111 L115.041223,0.167407407 L115.041223,0.167407407 Z"/>
          <path d="M130.273162,1.08814815 L137.488291,5.18962963 L137.488291,13.3925926 L130.273162,17.4940741 L123.058032,13.3925926 L123.058032,5.18962963 L130.273162,1.08814815 M130.273162,0.167407407 L122.256352,4.77111111 L122.256352,13.9785185 L130.273162,18.5822222 L138.289972,13.9785185 L138.289972,4.77111111 L130.273162,0.167407407 L130.273162,0.167407407 Z"/>
          <path d="M145.5051,1.08814815 L152.72023,5.18962963 L152.72023,13.3925926 L145.5051,17.4940741 L138.289972,13.3925926 L138.289972,5.18962963 L145.5051,1.08814815 M145.5051,0.167407407 L137.488291,4.77111111 L137.488291,13.9785185 L145.5051,18.5822222 L153.521911,13.9785185 L153.521911,4.77111111 L145.5051,0.167407407 L145.5051,0.167407407 Z"/>
          <path d="M160.737039,1.08814815 L167.952169,5.18962963 L167.952169,13.3925926 L160.737039,17.4940741 L153.521911,13.3925926 L153.521911,5.18962963 L160.737039,1.08814815 M160.737039,0.167407407 L152.72023,4.77111111 L152.72023,13.9785185 L160.737039,18.5822222 L168.75385,13.9785185 L168.75385,4.77111111 L160.737039,0.167407407 L160.737039,0.167407407 Z"/>
          <path d="M175.968978,1.08814815 L183.184107,5.18962963 L183.184107,13.3925926 L175.968978,17.4940741 L168.75385,13.3925926 L168.75385,5.18962963 L175.968978,1.08814815 M175.968978,0.167407407 L167.952169,4.77111111 L167.952169,13.9785185 L175.968978,18.5822222 L183.985789,13.9785185 L183.985789,4.77111111 L175.968978,0.167407407 L175.968978,0.167407407 Z"/>
          <path d="M191.200917,1.08814815 L198.416046,5.18962963 L198.416046,13.3925926 L191.200917,17.4940741 L183.985789,13.3925926 L183.985789,5.18962963 L191.200917,1.08814815 M191.200917,0.167407407 L183.184107,4.77111111 L183.184107,13.9785185 L191.200917,18.5822222 L199.217727,13.9785185 L199.217727,4.77111111 L191.200917,0.167407407 L191.200917,0.167407407 Z"/>
          <path d="M206.432856,1.08814815 L213.647985,5.18962963 L213.647985,13.3925926 L206.432856,17.4940741 L199.217727,13.3925926 L199.217727,5.18962963 L206.432856,1.08814815 M206.432856,0.167407407 L198.416046,4.77111111 L198.416046,13.9785185 L206.432856,18.5822222 L214.449666,13.9785185 L214.449666,4.77111111 L206.432856,0.167407407 L206.432856,0.167407407 Z"/>
          <path d="M221.664796,1.08814815 L228.879924,5.18962963 L228.879924,13.3925926 L221.664796,17.4940741 L214.449666,13.3925926 L214.449666,5.18962963 L221.664796,1.08814815 M221.664796,0.167407407 L213.647985,4.77111111 L213.647985,13.9785185 L221.664796,18.5822222 L229.681605,13.9785185 L229.681605,4.77111111 L221.664796,0.167407407 L221.664796,0.167407407 Z"/>
          <path d="M236.896734,1.08814815 L244.111863,5.18962963 L244.111863,13.3925926 L236.896734,17.4940741 L229.681605,13.3925926 L229.681605,5.18962963 L236.896734,1.08814815 M236.896734,0.167407407 L228.879924,4.77111111 L228.879924,13.9785185 L236.896734,18.5822222 L244.913544,13.9785185 L244.913544,4.77111111 L236.896734,0.167407407 L236.896734,0.167407407 Z"/>
          <path d="M252.128673,1.08814815 L259.343802,5.18962963 L259.343802,13.3925926 L252.128673,17.4940741 L244.913544,13.3925926 L244.913544,5.18962963 L252.128673,1.08814815 M252.128673,0.167407407 L244.111863,4.77111111 L244.111863,13.9785185 L252.128673,18.5822222 L260.145483,13.9785185 L260.145483,4.77111111 L252.128673,0.167407407 L252.128673,0.167407407 Z"/>
          <path d="M267.360612,1.08814815 L274.57574,5.18962963 L274.57574,13.3925926 L267.360612,17.4940741 L260.145483,13.3925926 L260.145483,5.18962963 L267.360612,1.08814815 M267.360612,0.167407407 L259.343802,4.77111111 L259.343802,13.9785185 L267.360612,18.5822222 L275.377422,13.9785185 L275.377422,4.77111111 L267.360612,0.167407407 L267.360612,0.167407407 Z"/>
          <path d="M282.592551,1.08814815 L289.807679,5.18962963 L289.807679,13.3925926 L282.592551,17.4940741 L275.377422,13.3925926 L275.377422,5.18962963 L282.592551,1.08814815 M282.592551,0.167407407 L274.57574,4.77111111 L274.57574,13.9785185 L282.592551,18.5822222 L290.60936,13.9785185 L290.60936,4.77111111 L282.592551,0.167407407 L282.592551,0.167407407 Z"/>
          <path d="M297.82449,1.08814815 L305.039619,5.18962963 L305.039619,13.3925926 L297.82449,17.4940741 L290.60936,13.3925926 L290.60936,5.18962963 L297.82449,1.08814815 M297.82449,0.167407407 L289.807679,4.77111111 L289.807679,13.9785185 L297.82449,18.5822222 L305.841299,13.9785185 L305.841299,4.77111111 L297.82449,0.167407407 L297.82449,0.167407407 Z"/>
        </g>
        <g fill="#CECECE" fill-rule="nonzero" transform="translate(0 30.485)">
          <path d="M8.01680995,1.25555556 L15.2319389,5.35703704 L15.2319389,13.56 L8.01680995,17.6614815 L0.801680995,13.56 L0.801680995,5.35703704 L8.01680995,1.25555556 M8.01680995,0.334814815 L0,4.93851852 L0,14.1459259 L8.01680995,18.7496296 L16.0336199,14.1459259 L16.0336199,4.93851852 L8.01680995,0.334814815 L8.01680995,0.334814815 Z"/>
          <path d="M23.2487488,1.25555556 L30.4638778,5.35703704 L30.4638778,13.56 L23.2487488,17.6614815 L16.0336199,13.56 L16.0336199,5.35703704 L23.2487488,1.25555556 M23.2487488,0.334814815 L15.2319389,4.93851852 L15.2319389,14.1459259 L23.2487488,18.7496296 L31.2655588,14.1459259 L31.2655588,4.93851852 L23.2487488,0.334814815 L23.2487488,0.334814815 Z"/>
          <path d="M38.4806877,1.25555556 L45.6958167,5.35703704 L45.6958167,13.56 L38.4806877,17.6614815 L31.2655588,13.56 L31.2655588,5.35703704 L38.4806877,1.25555556 M38.4806877,0.334814815 L30.4638778,4.93851852 L30.4638778,14.1459259 L38.4806877,18.7496296 L46.4974977,14.1459259 L46.4974977,4.93851852 L38.4806877,0.334814815 L38.4806877,0.334814815 Z"/>
          <path d="M53.7126267,1.25555556 L60.9277556,5.35703704 L60.9277556,13.56 L53.7126267,17.6614815 L46.4974977,13.56 L46.4974977,5.35703704 L53.7126267,1.25555556 M53.7126267,0.334814815 L45.6958167,4.93851852 L45.6958167,14.1459259 L53.7126267,18.7496296 L61.7294366,14.1459259 L61.7294366,4.93851852 L53.7126267,0.334814815 L53.7126267,0.334814815 Z"/>
          <path d="M68.9445656,1.25555556 L76.1596945,5.35703704 L76.1596945,13.56 L68.9445656,17.6614815 L61.7294366,13.56 L61.7294366,5.35703704 L68.9445656,1.25555556 M68.9445656,0.334814815 L60.9277556,4.93851852 L60.9277556,14.1459259 L68.9445656,18.7496296 L76.9613756,14.1459259 L76.9613756,4.93851852 L68.9445656,0.334814815 L68.9445656,0.334814815 Z"/>
          <path d="M84.1765045,1.25555556 L91.3916334,5.35703704 L91.3916334,13.56 L84.1765045,17.6614815 L76.9613756,13.56 L76.9613756,5.35703704 L84.1765045,1.25555556 M84.1765045,0.334814815 L76.1596945,4.93851852 L76.1596945,14.1459259 L84.1765045,18.7496296 L92.1933144,14.1459259 L92.1933144,4.93851852 L84.1765045,0.334814815 L84.1765045,0.334814815 Z"/>
          <path d="M99.4084434,1.25555556 L106.623573,5.35703704 L106.623573,13.56 L99.4084434,17.6614815 L92.1933144,13.56 L92.1933144,5.35703704 L99.4084434,1.25555556 M99.4084434,0.334814815 L91.3916334,4.93851852 L91.3916334,14.1459259 L99.4084434,18.7496296 L107.425253,14.1459259 L107.425253,4.93851852 L99.4084434,0.334814815 L99.4084434,0.334814815 Z"/>
          <path d="M114.640382,1.25555556 L121.855512,5.35703704 L121.855512,13.56 L114.640382,17.6614815 L107.425253,13.56 L107.425253,5.35703704 L114.640382,1.25555556 M114.640382,0.334814815 L106.623573,4.93851852 L106.623573,14.1459259 L114.640382,18.7496296 L122.657193,14.1459259 L122.657193,4.93851852 L114.640382,0.334814815 L114.640382,0.334814815 Z"/>
          <path d="M129.872321,1.25555556 L137.08745,5.35703704 L137.08745,13.56 L129.872321,17.6614815 L122.657193,13.56 L122.657193,5.35703704 L129.872321,1.25555556 M129.872321,0.334814815 L121.855512,4.93851852 L121.855512,14.1459259 L129.872321,18.7496296 L137.889132,14.1459259 L137.889132,4.93851852 L129.872321,0.334814815 L129.872321,0.334814815 Z"/>
          <path d="M145.10426,1.25555556 L152.319389,5.35703704 L152.319389,13.56 L145.10426,17.6614815 L137.889132,13.56 L137.889132,5.35703704 L145.10426,1.25555556 M145.10426,0.334814815 L137.08745,4.93851852 L137.08745,14.1459259 L145.10426,18.7496296 L153.12107,14.1459259 L153.12107,4.93851852 L145.10426,0.334814815 L145.10426,0.334814815 Z"/>
          <path d="M160.336199,1.25555556 L167.551328,5.35703704 L167.551328,13.56 L160.336199,17.6614815 L153.12107,13.56 L153.12107,5.35703704 L160.336199,1.25555556 M160.336199,0.334814815 L152.319389,4.93851852 L152.319389,14.1459259 L160.336199,18.7496296 L168.353009,14.1459259 L168.353009,4.93851852 L160.336199,0.334814815 L160.336199,0.334814815 Z"/>
          <path d="M175.568138,1.25555556 L182.783267,5.35703704 L182.783267,13.56 L175.568138,17.6614815 L168.353009,13.56 L168.353009,5.35703704 L175.568138,1.25555556 M175.568138,0.334814815 L167.551328,4.93851852 L167.551328,14.1459259 L175.568138,18.7496296 L183.584948,14.1459259 L183.584948,4.93851852 L175.568138,0.334814815 L175.568138,0.334814815 Z"/>
          <path d="M190.800076,1.25555556 L198.015206,5.35703704 L198.015206,13.56 L190.800076,17.6614815 L183.584948,13.56 L183.584948,5.35703704 L190.800076,1.25555556 M190.800076,0.334814815 L182.783267,4.93851852 L182.783267,14.1459259 L190.800076,18.7496296 L198.816887,14.1459259 L198.816887,4.93851852 L190.800076,0.334814815 L190.800076,0.334814815 Z"/>
          <path d="M206.032016,1.25555556 L213.247145,5.35703704 L213.247145,13.56 L206.032016,17.6614815 L198.816887,13.56 L198.816887,5.35703704 L206.032016,1.25555556 M206.032016,0.334814815 L198.015206,4.93851852 L198.015206,14.1459259 L206.032016,18.7496296 L214.048826,14.1459259 L214.048826,4.93851852 L206.032016,0.334814815 L206.032016,0.334814815 Z"/>
          <path d="M221.263955,1.25555556 L228.479083,5.35703704 L228.479083,13.56 L221.263955,17.6614815 L214.048826,13.56 L214.048826,5.35703704 L221.263955,1.25555556 M221.263955,0.334814815 L213.247145,4.93851852 L213.247145,14.1459259 L221.263955,18.7496296 L229.280765,14.1459259 L229.280765,4.93851852 L221.263955,0.334814815 L221.263955,0.334814815 Z"/>
          <path d="M236.495894,1.25555556 L243.711022,5.35703704 L243.711022,13.56 L236.495894,17.6614815 L229.280765,13.56 L229.280765,5.35703704 L236.495894,1.25555556 M236.495894,0.334814815 L228.479083,4.93851852 L228.479083,14.1459259 L236.495894,18.7496296 L244.512703,14.1459259 L244.512703,4.93851852 L236.495894,0.334814815 L236.495894,0.334814815 Z"/>
          <path d="M251.727833,1.25555556 L258.942961,5.35703704 L258.942961,13.56 L251.727833,17.6614815 L244.512703,13.56 L244.512703,5.35703704 L251.727833,1.25555556 M251.727833,0.334814815 L243.711022,4.93851852 L243.711022,14.1459259 L251.727833,18.7496296 L259.744642,14.1459259 L259.744642,4.93851852 L251.727833,0.334814815 L251.727833,0.334814815 Z"/>
          <path d="M266.959771,1.25555556 L274.1749,5.35703704 L274.1749,13.56 L266.959771,17.6614815 L259.744642,13.56 L259.744642,5.35703704 L266.959771,1.25555556 M266.959771,0.334814815 L258.942961,4.93851852 L258.942961,14.1459259 L266.959771,18.7496296 L274.976581,14.1459259 L274.976581,4.93851852 L266.959771,0.334814815 L266.959771,0.334814815 Z"/>
          <path d="M282.19171,1.25555556 L289.40684,5.35703704 L289.40684,13.56 L282.19171,17.6614815 L274.976581,13.56 L274.976581,5.35703704 L282.19171,1.25555556 M282.19171,0.334814815 L274.1749,4.93851852 L274.1749,14.1459259 L282.19171,18.7496296 L290.20852,14.1459259 L290.20852,4.93851852 L282.19171,0.334814815 L282.19171,0.334814815 Z"/>
          <path d="M297.423649,1.25555556 L304.638778,5.35703704 L304.638778,13.56 L297.423649,17.6614815 L290.20852,13.56 L290.20852,5.35703704 L297.423649,1.25555556 M297.423649,0.334814815 L289.40684,4.93851852 L289.40684,14.1459259 L297.423649,18.7496296 L305.440459,14.1459259 L305.440459,4.93851852 L297.423649,0.334814815 L297.423649,0.334814815 Z"/>
        </g>
        <g fill="#CECECE" fill-rule="nonzero" transform="translate(7.215 43.878)">
          <path d="M8.41765045,1.33925926 L15.6327794,5.44074074 L15.6327794,13.6437037 L8.41765045,17.7451852 L1.20252149,13.6437037 L1.20252149,5.44074074 L8.41765045,1.33925926 M8.41765045,0.334814815 L0.400840497,4.93851852 L0.400840497,14.1459259 L8.41765045,18.7496296 L16.4344604,14.1459259 L16.4344604,4.93851852 L8.41765045,0.334814815 L8.41765045,0.334814815 Z"/>
          <path d="M23.6495894,1.33925926 L30.8647183,5.44074074 L30.8647183,13.6437037 L23.6495894,17.7451852 L16.4344604,13.6437037 L16.4344604,5.44074074 L23.6495894,1.33925926 M23.6495894,0.334814815 L15.6327794,4.93851852 L15.6327794,14.1459259 L23.6495894,18.7496296 L31.6663993,14.1459259 L31.6663993,4.93851852 L23.6495894,0.334814815 L23.6495894,0.334814815 Z"/>
          <path d="M38.8815283,1.33925926 L46.0966572,5.44074074 L46.0966572,13.6437037 L38.8815283,17.7451852 L31.6663993,13.6437037 L31.6663993,5.44074074 L38.8815283,1.33925926 M38.8815283,0.334814815 L30.8647183,4.93851852 L30.8647183,14.1459259 L38.8815283,18.7496296 L46.8983382,14.1459259 L46.8983382,4.93851852 L38.8815283,0.334814815 L38.8815283,0.334814815 Z"/>
          <path d="M54.1134671,1.33925926 L61.3285962,5.44074074 L61.3285962,13.6437037 L54.1134671,17.7451852 L46.8983382,13.6437037 L46.8983382,5.44074074 L54.1134671,1.33925926 M54.1134671,0.334814815 L46.0966572,4.93851852 L46.0966572,14.1459259 L54.1134671,18.7496296 L62.1302771,14.1459259 L62.1302771,4.93851852 L54.1134671,0.334814815 L54.1134671,0.334814815 Z"/>
          <path d="M69.3454061,1.33925926 L76.560535,5.44074074 L76.560535,13.6437037 L69.3454061,17.7451852 L62.1302771,13.6437037 L62.1302771,5.44074074 L69.3454061,1.33925926 M69.3454061,0.334814815 L61.3285962,4.93851852 L61.3285962,14.1459259 L69.3454061,18.7496296 L77.362216,14.1459259 L77.362216,4.93851852 L69.3454061,0.334814815 L69.3454061,0.334814815 Z"/>
          <path d="M84.577345,1.33925926 L91.7924739,5.44074074 L91.7924739,13.6437037 L84.577345,17.7451852 L77.362216,13.6437037 L77.362216,5.44074074 L84.577345,1.33925926 M84.577345,0.334814815 L76.560535,4.93851852 L76.560535,14.1459259 L84.577345,18.7496296 L92.594155,14.1459259 L92.594155,4.93851852 L84.577345,0.334814815 L84.577345,0.334814815 Z"/>
          <path d="M99.8092839,1.33925926 L107.024412,5.44074074 L107.024412,13.6437037 L99.8092839,17.7451852 L92.594155,13.6437037 L92.594155,5.44074074 L99.8092839,1.33925926 M99.8092839,0.334814815 L91.7924739,4.93851852 L91.7924739,14.1459259 L99.8092839,18.7496296 L107.826093,14.1459259 L107.826093,4.93851852 L99.8092839,0.334814815 L99.8092839,0.334814815 Z"/>
          <path d="M115.041223,1.33925926 L122.256352,5.44074074 L122.256352,13.6437037 L115.041223,17.7451852 L107.826093,13.6437037 L107.826093,5.44074074 L115.041223,1.33925926 M115.041223,0.334814815 L107.024412,4.93851852 L107.024412,14.1459259 L115.041223,18.7496296 L123.058032,14.1459259 L123.058032,4.93851852 L115.041223,0.334814815 L115.041223,0.334814815 Z"/>
          <path d="M130.273162,1.33925926 L137.488291,5.44074074 L137.488291,13.6437037 L130.273162,17.7451852 L123.058032,13.6437037 L123.058032,5.44074074 L130.273162,1.33925926 M130.273162,0.334814815 L122.256352,4.93851852 L122.256352,14.1459259 L130.273162,18.7496296 L138.289972,14.1459259 L138.289972,4.93851852 L130.273162,0.334814815 L130.273162,0.334814815 Z"/>
          <path d="M145.5051,1.33925926 L152.72023,5.44074074 L152.72023,13.6437037 L145.5051,17.7451852 L138.289972,13.6437037 L138.289972,5.44074074 L145.5051,1.33925926 M145.5051,0.334814815 L137.488291,4.93851852 L137.488291,14.1459259 L145.5051,18.7496296 L153.521911,14.1459259 L153.521911,4.93851852 L145.5051,0.334814815 L145.5051,0.334814815 Z"/>
          <path d="M160.737039,1.33925926 L167.952169,5.44074074 L167.952169,13.6437037 L160.737039,17.7451852 L153.521911,13.6437037 L153.521911,5.44074074 L160.737039,1.33925926 M160.737039,0.334814815 L152.72023,4.93851852 L152.72023,14.1459259 L160.737039,18.7496296 L168.75385,14.1459259 L168.75385,4.93851852 L160.737039,0.334814815 L160.737039,0.334814815 Z"/>
          <path d="M175.968978,1.33925926 L183.184107,5.44074074 L183.184107,13.6437037 L175.968978,17.7451852 L168.75385,13.6437037 L168.75385,5.44074074 L175.968978,1.33925926 M175.968978,0.334814815 L167.952169,4.93851852 L167.952169,14.1459259 L175.968978,18.7496296 L183.985789,14.1459259 L183.985789,4.93851852 L175.968978,0.334814815 L175.968978,0.334814815 Z"/>
          <path d="M191.200917,1.33925926 L198.416046,5.44074074 L198.416046,13.6437037 L191.200917,17.7451852 L183.985789,13.6437037 L183.985789,5.44074074 L191.200917,1.33925926 M191.200917,0.334814815 L183.184107,4.93851852 L183.184107,14.1459259 L191.200917,18.7496296 L199.217727,14.1459259 L199.217727,4.93851852 L191.200917,0.334814815 L191.200917,0.334814815 Z"/>
          <path d="M206.432856,1.33925926 L213.647985,5.44074074 L213.647985,13.6437037 L206.432856,17.7451852 L199.217727,13.6437037 L199.217727,5.44074074 L206.432856,1.33925926 M206.432856,0.334814815 L198.416046,4.93851852 L198.416046,14.1459259 L206.432856,18.7496296 L214.449666,14.1459259 L214.449666,4.93851852 L206.432856,0.334814815 L206.432856,0.334814815 Z"/>
          <path d="M221.664796,1.33925926 L228.879924,5.44074074 L228.879924,13.6437037 L221.664796,17.7451852 L214.449666,13.6437037 L214.449666,5.44074074 L221.664796,1.33925926 M221.664796,0.334814815 L213.647985,4.93851852 L213.647985,14.1459259 L221.664796,18.7496296 L229.681605,14.1459259 L229.681605,4.93851852 L221.664796,0.334814815 L221.664796,0.334814815 Z"/>
          <path d="M236.896734,1.33925926 L244.111863,5.44074074 L244.111863,13.6437037 L236.896734,17.7451852 L229.681605,13.6437037 L229.681605,5.44074074 L236.896734,1.33925926 M236.896734,0.334814815 L228.879924,4.93851852 L228.879924,14.1459259 L236.896734,18.7496296 L244.913544,14.1459259 L244.913544,4.93851852 L236.896734,0.334814815 L236.896734,0.334814815 Z"/>
          <path d="M252.128673,1.33925926 L259.343802,5.44074074 L259.343802,13.6437037 L252.128673,17.7451852 L244.913544,13.6437037 L244.913544,5.44074074 L252.128673,1.33925926 M252.128673,0.334814815 L244.111863,4.93851852 L244.111863,14.1459259 L252.128673,18.7496296 L260.145483,14.1459259 L260.145483,4.93851852 L252.128673,0.334814815 L252.128673,0.334814815 Z"/>
          <path d="M267.360612,1.33925926 L274.57574,5.44074074 L274.57574,13.6437037 L267.360612,17.7451852 L260.145483,13.6437037 L260.145483,5.44074074 L267.360612,1.33925926 M267.360612,0.334814815 L259.343802,4.93851852 L259.343802,14.1459259 L267.360612,18.7496296 L275.377422,14.1459259 L275.377422,4.93851852 L267.360612,0.334814815 L267.360612,0.334814815 Z"/>
          <path d="M282.592551,1.33925926 L289.807679,5.44074074 L289.807679,13.6437037 L282.592551,17.7451852 L275.377422,13.6437037 L275.377422,5.44074074 L282.592551,1.33925926 M282.592551,0.334814815 L274.57574,4.93851852 L274.57574,14.1459259 L282.592551,18.7496296 L290.60936,14.1459259 L290.60936,4.93851852 L282.592551,0.334814815 L282.592551,0.334814815 Z"/>
          <path d="M297.82449,1.33925926 L305.039619,5.44074074 L305.039619,13.6437037 L297.82449,17.7451852 L290.60936,13.6437037 L290.60936,5.44074074 L297.82449,1.33925926 M297.82449,0.334814815 L289.807679,4.93851852 L289.807679,14.1459259 L297.82449,18.7496296 L305.841299,14.1459259 L305.841299,4.93851852 L297.82449,0.334814815 L297.82449,0.334814815 Z"/>
        </g>
        <g fill="#CECECE" fill-rule="nonzero" transform="translate(0 57.27)">
          <path d="M8.01680995,1.50666667 L15.2319389,5.60814815 L15.2319389,13.8111111 L8.01680995,17.9125926 L0.801680995,13.8111111 L0.801680995,5.60814815 L8.01680995,1.50666667 M8.01680995,0.502222222 L0,5.10592593 L0,14.3133333 L8.01680995,18.917037 L16.0336199,14.3133333 L16.0336199,5.10592593 L8.01680995,0.502222222 L8.01680995,0.502222222 Z"/>
          <path d="M23.2487488,1.50666667 L30.4638778,5.60814815 L30.4638778,13.8111111 L23.2487488,17.9125926 L16.0336199,13.8111111 L16.0336199,5.60814815 L23.2487488,1.50666667 M23.2487488,0.502222222 L15.2319389,5.10592593 L15.2319389,14.3133333 L23.2487488,18.917037 L31.2655588,14.3133333 L31.2655588,5.10592593 L23.2487488,0.502222222 L23.2487488,0.502222222 Z"/>
          <path d="M38.4806877,1.50666667 L45.6958167,5.60814815 L45.6958167,13.8111111 L38.4806877,17.9125926 L31.2655588,13.8111111 L31.2655588,5.60814815 L38.4806877,1.50666667 M38.4806877,0.502222222 L30.4638778,5.10592593 L30.4638778,14.3133333 L38.4806877,18.917037 L46.4974977,14.3133333 L46.4974977,5.10592593 L38.4806877,0.502222222 L38.4806877,0.502222222 Z"/>
          <path d="M53.7126267,1.50666667 L60.9277556,5.60814815 L60.9277556,13.8111111 L53.7126267,17.9125926 L46.4974977,13.8111111 L46.4974977,5.60814815 L53.7126267,1.50666667 M53.7126267,0.502222222 L45.6958167,5.10592593 L45.6958167,14.3133333 L53.7126267,18.917037 L61.7294366,14.3133333 L61.7294366,5.10592593 L53.7126267,0.502222222 L53.7126267,0.502222222 Z"/>
          <path d="M68.9445656,1.50666667 L76.1596945,5.60814815 L76.1596945,13.8111111 L68.9445656,17.9125926 L61.7294366,13.8111111 L61.7294366,5.60814815 L68.9445656,1.50666667 M68.9445656,0.502222222 L60.9277556,5.10592593 L60.9277556,14.3133333 L68.9445656,18.917037 L76.9613756,14.3133333 L76.9613756,5.10592593 L68.9445656,0.502222222 L68.9445656,0.502222222 Z"/>
          <path d="M84.1765045,1.50666667 L91.3916334,5.60814815 L91.3916334,13.8111111 L84.1765045,17.9125926 L76.9613756,13.8111111 L76.9613756,5.60814815 L84.1765045,1.50666667 M84.1765045,0.502222222 L76.1596945,5.10592593 L76.1596945,14.3133333 L84.1765045,18.917037 L92.1933144,14.3133333 L92.1933144,5.10592593 L84.1765045,0.502222222 L84.1765045,0.502222222 Z"/>
          <path d="M99.4084434,1.50666667 L106.623573,5.60814815 L106.623573,13.8111111 L99.4084434,17.9125926 L92.1933144,13.8111111 L92.1933144,5.60814815 L99.4084434,1.50666667 M99.4084434,0.502222222 L91.3916334,5.10592593 L91.3916334,14.3133333 L99.4084434,18.917037 L107.425253,14.3133333 L107.425253,5.10592593 L99.4084434,0.502222222 L99.4084434,0.502222222 Z"/>
          <path d="M114.640382,1.50666667 L121.855512,5.60814815 L121.855512,13.8111111 L114.640382,17.9125926 L107.425253,13.8111111 L107.425253,5.60814815 L114.640382,1.50666667 M114.640382,0.502222222 L106.623573,5.10592593 L106.623573,14.3133333 L114.640382,18.917037 L122.657193,14.3133333 L122.657193,5.10592593 L114.640382,0.502222222 L114.640382,0.502222222 Z"/>
          <path d="M129.872321,1.50666667 L137.08745,5.60814815 L137.08745,13.8111111 L129.872321,17.9125926 L122.657193,13.8111111 L122.657193,5.60814815 L129.872321,1.50666667 M129.872321,0.502222222 L121.855512,5.10592593 L121.855512,14.3133333 L129.872321,18.917037 L137.889132,14.3133333 L137.889132,5.10592593 L129.872321,0.502222222 L129.872321,0.502222222 Z"/>
          <path d="M145.10426,1.50666667 L152.319389,5.60814815 L152.319389,13.8111111 L145.10426,17.9125926 L137.889132,13.8111111 L137.889132,5.60814815 L145.10426,1.50666667 M145.10426,0.502222222 L137.08745,5.10592593 L137.08745,14.3133333 L145.10426,18.917037 L153.12107,14.3133333 L153.12107,5.10592593 L145.10426,0.502222222 L145.10426,0.502222222 Z"/>
          <path d="M160.336199,1.50666667 L167.551328,5.60814815 L167.551328,13.8111111 L160.336199,17.9125926 L153.12107,13.8111111 L153.12107,5.60814815 L160.336199,1.50666667 M160.336199,0.502222222 L152.319389,5.10592593 L152.319389,14.3133333 L160.336199,18.917037 L168.353009,14.3133333 L168.353009,5.10592593 L160.336199,0.502222222 L160.336199,0.502222222 Z"/>
          <path d="M175.568138,1.50666667 L182.783267,5.60814815 L182.783267,13.8111111 L175.568138,17.9125926 L168.353009,13.8111111 L168.353009,5.60814815 L175.568138,1.50666667 M175.568138,0.502222222 L167.551328,5.10592593 L167.551328,14.3133333 L175.568138,18.917037 L183.584948,14.3133333 L183.584948,5.10592593 L175.568138,0.502222222 L175.568138,0.502222222 Z"/>
          <path d="M190.800076,1.50666667 L198.015206,5.60814815 L198.015206,13.8111111 L190.800076,17.9125926 L183.584948,13.8111111 L183.584948,5.60814815 L190.800076,1.50666667 M190.800076,0.502222222 L182.783267,5.10592593 L182.783267,14.3133333 L190.800076,18.917037 L198.816887,14.3133333 L198.816887,5.10592593 L190.800076,0.502222222 L190.800076,0.502222222 Z"/>
          <path d="M206.032016,1.50666667 L213.247145,5.60814815 L213.247145,13.8111111 L206.032016,17.9125926 L198.816887,13.8111111 L198.816887,5.60814815 L206.032016,1.50666667 M206.032016,0.502222222 L198.015206,5.10592593 L198.015206,14.3133333 L206.032016,18.917037 L214.048826,14.3133333 L214.048826,5.10592593 L206.032016,0.502222222 L206.032016,0.502222222 Z"/>
          <path d="M221.263955,1.50666667 L228.479083,5.60814815 L228.479083,13.8111111 L221.263955,17.9125926 L214.048826,13.8111111 L214.048826,5.60814815 L221.263955,1.50666667 M221.263955,0.502222222 L213.247145,5.10592593 L213.247145,14.3133333 L221.263955,18.917037 L229.280765,14.3133333 L229.280765,5.10592593 L221.263955,0.502222222 L221.263955,0.502222222 Z"/>
          <path d="M236.495894,1.50666667 L243.711022,5.60814815 L243.711022,13.8111111 L236.495894,17.9125926 L229.280765,13.8111111 L229.280765,5.60814815 L236.495894,1.50666667 M236.495894,0.502222222 L228.479083,5.10592593 L228.479083,14.3133333 L236.495894,18.917037 L244.512703,14.3133333 L244.512703,5.10592593 L236.495894,0.502222222 L236.495894,0.502222222 Z"/>
          <path d="M251.727833,1.50666667 L258.942961,5.60814815 L258.942961,13.8111111 L251.727833,17.9125926 L244.512703,13.8111111 L244.512703,5.60814815 L251.727833,1.50666667 M251.727833,0.502222222 L243.711022,5.10592593 L243.711022,14.3133333 L251.727833,18.917037 L259.744642,14.3133333 L259.744642,5.10592593 L251.727833,0.502222222 L251.727833,0.502222222 Z"/>
          <path d="M266.959771,1.50666667 L274.1749,5.60814815 L274.1749,13.8111111 L266.959771,17.9125926 L259.744642,13.8111111 L259.744642,5.60814815 L266.959771,1.50666667 M266.959771,0.502222222 L258.942961,5.10592593 L258.942961,14.3133333 L266.959771,18.917037 L274.976581,14.3133333 L274.976581,5.10592593 L266.959771,0.502222222 L266.959771,0.502222222 Z"/>
          <path d="M282.19171,1.50666667 L289.40684,5.60814815 L289.40684,13.8111111 L282.19171,17.9125926 L274.976581,13.8111111 L274.976581,5.60814815 L282.19171,1.50666667 M282.19171,0.502222222 L274.1749,5.10592593 L274.1749,14.3133333 L282.19171,18.917037 L290.20852,14.3133333 L290.20852,5.10592593 L282.19171,0.502222222 L282.19171,0.502222222 Z"/>
          <path d="M297.423649,1.50666667 L304.638778,5.60814815 L304.638778,13.8111111 L297.423649,17.9125926 L290.20852,13.8111111 L290.20852,5.60814815 L297.423649,1.50666667 M297.423649,0.502222222 L289.40684,5.10592593 L289.40684,14.3133333 L297.423649,18.917037 L305.440459,14.3133333 L305.440459,5.10592593 L297.423649,0.502222222 L297.423649,0.502222222 Z"/>
        </g>
        <g fill="#CECECE" fill-rule="nonzero" transform="translate(7.215 70.663)">
          <path d="M8.41765045,1.50666667 L15.6327794,5.60814815 L15.6327794,13.8111111 L8.41765045,17.9125926 L1.20252149,13.8111111 L1.20252149,5.60814815 L8.41765045,1.50666667 M8.41765045,0.585925926 L0.400840497,5.18962963 L0.400840497,14.397037 L8.41765045,19.0007407 L16.4344604,14.397037 L16.4344604,5.18962963 L8.41765045,0.585925926 L8.41765045,0.585925926 Z"/>
          <path d="M23.6495894,1.50666667 L30.8647183,5.60814815 L30.8647183,13.8111111 L23.6495894,17.9125926 L16.4344604,13.8111111 L16.4344604,5.60814815 L23.6495894,1.50666667 M23.6495894,0.585925926 L15.6327794,5.18962963 L15.6327794,14.397037 L23.6495894,19.0007407 L31.6663993,14.397037 L31.6663993,5.18962963 L23.6495894,0.585925926 L23.6495894,0.585925926 Z"/>
          <path d="M38.8815283,1.50666667 L46.0966572,5.60814815 L46.0966572,13.8111111 L38.8815283,17.9125926 L31.6663993,13.8111111 L31.6663993,5.60814815 L38.8815283,1.50666667 M38.8815283,0.585925926 L30.8647183,5.18962963 L30.8647183,14.397037 L38.8815283,19.0007407 L46.8983382,14.397037 L46.8983382,5.18962963 L38.8815283,0.585925926 L38.8815283,0.585925926 Z"/>
          <path d="M54.1134671,1.50666667 L61.3285962,5.60814815 L61.3285962,13.8111111 L54.1134671,17.9125926 L46.8983382,13.8111111 L46.8983382,5.60814815 L54.1134671,1.50666667 M54.1134671,0.585925926 L46.0966572,5.18962963 L46.0966572,14.397037 L54.1134671,19.0007407 L62.1302771,14.397037 L62.1302771,5.18962963 L54.1134671,0.585925926 L54.1134671,0.585925926 Z"/>
          <path d="M69.3454061,1.50666667 L76.560535,5.60814815 L76.560535,13.8111111 L69.3454061,17.9125926 L62.1302771,13.8111111 L62.1302771,5.60814815 L69.3454061,1.50666667 M69.3454061,0.585925926 L61.3285962,5.18962963 L61.3285962,14.397037 L69.3454061,19.0007407 L77.362216,14.397037 L77.362216,5.18962963 L69.3454061,0.585925926 L69.3454061,0.585925926 Z"/>
          <path d="M84.577345,1.50666667 L91.7924739,5.60814815 L91.7924739,13.8111111 L84.577345,17.9125926 L77.362216,13.8111111 L77.362216,5.60814815 L84.577345,1.50666667 M84.577345,0.585925926 L76.560535,5.18962963 L76.560535,14.397037 L84.577345,19.0007407 L92.594155,14.397037 L92.594155,5.18962963 L84.577345,0.585925926 L84.577345,0.585925926 Z"/>
          <path d="M99.8092839,1.50666667 L107.024412,5.60814815 L107.024412,13.8111111 L99.8092839,17.9125926 L92.594155,13.8111111 L92.594155,5.60814815 L99.8092839,1.50666667 M99.8092839,0.585925926 L91.7924739,5.18962963 L91.7924739,14.397037 L99.8092839,19.0007407 L107.826093,14.397037 L107.826093,5.18962963 L99.8092839,0.585925926 L99.8092839,0.585925926 Z"/>
          <path d="M115.041223,1.50666667 L122.256352,5.60814815 L122.256352,13.8111111 L115.041223,17.9125926 L107.826093,13.8111111 L107.826093,5.60814815 L115.041223,1.50666667 M115.041223,0.585925926 L107.024412,5.18962963 L107.024412,14.397037 L115.041223,19.0007407 L123.058032,14.397037 L123.058032,5.18962963 L115.041223,0.585925926 L115.041223,0.585925926 Z"/>
          <path d="M130.273162,1.50666667 L137.488291,5.60814815 L137.488291,13.8111111 L130.273162,17.9125926 L123.058032,13.8111111 L123.058032,5.60814815 L130.273162,1.50666667 M130.273162,0.585925926 L122.256352,5.18962963 L122.256352,14.397037 L130.273162,19.0007407 L138.289972,14.397037 L138.289972,5.18962963 L130.273162,0.585925926 L130.273162,0.585925926 Z"/>
          <path d="M145.5051,1.50666667 L152.72023,5.60814815 L152.72023,13.8111111 L145.5051,17.9125926 L138.289972,13.8111111 L138.289972,5.60814815 L145.5051,1.50666667 M145.5051,0.585925926 L137.488291,5.18962963 L137.488291,14.397037 L145.5051,19.0007407 L153.521911,14.397037 L153.521911,5.18962963 L145.5051,0.585925926 L145.5051,0.585925926 Z"/>
          <path d="M160.737039,1.50666667 L167.952169,5.60814815 L167.952169,13.8111111 L160.737039,17.9125926 L153.521911,13.8111111 L153.521911,5.60814815 L160.737039,1.50666667 M160.737039,0.585925926 L152.72023,5.18962963 L152.72023,14.397037 L160.737039,19.0007407 L168.75385,14.397037 L168.75385,5.18962963 L160.737039,0.585925926 L160.737039,0.585925926 Z"/>
          <path d="M175.968978,1.50666667 L183.184107,5.60814815 L183.184107,13.8111111 L175.968978,17.9125926 L168.75385,13.8111111 L168.75385,5.60814815 L175.968978,1.50666667 M175.968978,0.585925926 L167.952169,5.18962963 L167.952169,14.397037 L175.968978,19.0007407 L183.985789,14.397037 L183.985789,5.18962963 L175.968978,0.585925926 L175.968978,0.585925926 Z"/>
          <path d="M191.200917,1.50666667 L198.416046,5.60814815 L198.416046,13.8111111 L191.200917,17.9125926 L183.985789,13.8111111 L183.985789,5.60814815 L191.200917,1.50666667 M191.200917,0.585925926 L183.184107,5.18962963 L183.184107,14.397037 L191.200917,19.0007407 L199.217727,14.397037 L199.217727,5.18962963 L191.200917,0.585925926 L191.200917,0.585925926 Z"/>
          <path d="M206.432856,1.50666667 L213.647985,5.60814815 L213.647985,13.8111111 L206.432856,17.9125926 L199.217727,13.8111111 L199.217727,5.60814815 L206.432856,1.50666667 M206.432856,0.585925926 L198.416046,5.18962963 L198.416046,14.397037 L206.432856,19.0007407 L214.449666,14.397037 L214.449666,5.18962963 L206.432856,0.585925926 L206.432856,0.585925926 Z"/>
          <path d="M221.664796,1.50666667 L228.879924,5.60814815 L228.879924,13.8111111 L221.664796,17.9125926 L214.449666,13.8111111 L214.449666,5.60814815 L221.664796,1.50666667 M221.664796,0.585925926 L213.647985,5.18962963 L213.647985,14.397037 L221.664796,19.0007407 L229.681605,14.397037 L229.681605,5.18962963 L221.664796,0.585925926 L221.664796,0.585925926 Z"/>
          <path d="M236.896734,1.50666667 L244.111863,5.60814815 L244.111863,13.8111111 L236.896734,17.9125926 L229.681605,13.8111111 L229.681605,5.60814815 L236.896734,1.50666667 M236.896734,0.585925926 L228.879924,5.18962963 L228.879924,14.397037 L236.896734,19.0007407 L244.913544,14.397037 L244.913544,5.18962963 L236.896734,0.585925926 L236.896734,0.585925926 Z"/>
          <path d="M252.128673,1.50666667 L259.343802,5.60814815 L259.343802,13.8111111 L252.128673,17.9125926 L244.913544,13.8111111 L244.913544,5.60814815 L252.128673,1.50666667 M252.128673,0.585925926 L244.111863,5.18962963 L244.111863,14.397037 L252.128673,19.0007407 L260.145483,14.397037 L260.145483,5.18962963 L252.128673,0.585925926 L252.128673,0.585925926 Z"/>
          <path d="M267.360612,1.50666667 L274.57574,5.60814815 L274.57574,13.8111111 L267.360612,17.9125926 L260.145483,13.8111111 L260.145483,5.60814815 L267.360612,1.50666667 M267.360612,0.585925926 L259.343802,5.18962963 L259.343802,14.397037 L267.360612,19.0007407 L275.377422,14.397037 L275.377422,5.18962963 L267.360612,0.585925926 L267.360612,0.585925926 Z"/>
          <path d="M282.592551,1.50666667 L289.807679,5.60814815 L289.807679,13.8111111 L282.592551,17.9125926 L275.377422,13.8111111 L275.377422,5.60814815 L282.592551,1.50666667 M282.592551,0.585925926 L274.57574,5.18962963 L274.57574,14.397037 L282.592551,19.0007407 L290.60936,14.397037 L290.60936,5.18962963 L282.592551,0.585925926 L282.592551,0.585925926 Z"/>
          <path d="M297.82449,1.50666667 L305.039619,5.60814815 L305.039619,13.8111111 L297.82449,17.9125926 L290.60936,13.8111111 L290.60936,5.60814815 L297.82449,1.50666667 M297.82449,0.585925926 L289.807679,5.18962963 L289.807679,14.397037 L297.82449,19.0007407 L305.841299,14.397037 L305.841299,5.18962963 L297.82449,0.585925926 L297.82449,0.585925926 Z"/>
        </g>
        <g fill="#CECECE" fill-rule="nonzero" transform="translate(0 84.056)">
          <path d="M8.01680995,1.67407407 L15.2319389,5.77555556 L15.2319389,13.9785185 L8.01680995,18.08 L0.801680995,13.9785185 L0.801680995,5.85925926 L8.01680995,1.67407407 M8.01680995,0.753333333 L0,5.35703704 L0,14.5644444 L8.01680995,19.1681481 L16.0336199,14.5644444 L16.0336199,5.35703704 L8.01680995,0.753333333 L8.01680995,0.753333333 Z"/>
          <path d="M23.2487488,1.67407407 L30.4638778,5.77555556 L30.4638778,13.9785185 L23.2487488,18.08 L16.0336199,13.9785185 L16.0336199,5.85925926 L23.2487488,1.67407407 M23.2487488,0.753333333 L15.2319389,5.35703704 L15.2319389,14.5644444 L23.2487488,19.1681481 L31.2655588,14.5644444 L31.2655588,5.35703704 L23.2487488,0.753333333 L23.2487488,0.753333333 Z"/>
          <path d="M38.4806877,1.67407407 L45.6958167,5.77555556 L45.6958167,13.9785185 L38.4806877,18.08 L31.2655588,13.9785185 L31.2655588,5.85925926 L38.4806877,1.67407407 M38.4806877,0.753333333 L30.4638778,5.35703704 L30.4638778,14.5644444 L38.4806877,19.1681481 L46.4974977,14.5644444 L46.4974977,5.35703704 L38.4806877,0.753333333 L38.4806877,0.753333333 Z"/>
          <path d="M53.7126267,1.67407407 L60.9277556,5.77555556 L60.9277556,13.9785185 L53.7126267,18.08 L46.4974977,13.9785185 L46.4974977,5.85925926 L53.7126267,1.67407407 M53.7126267,0.753333333 L45.6958167,5.35703704 L45.6958167,14.5644444 L53.7126267,19.1681481 L61.7294366,14.5644444 L61.7294366,5.35703704 L53.7126267,0.753333333 L53.7126267,0.753333333 Z"/>
          <path d="M68.9445656,1.67407407 L76.1596945,5.77555556 L76.1596945,13.9785185 L68.9445656,18.08 L61.7294366,13.9785185 L61.7294366,5.85925926 L68.9445656,1.67407407 M68.9445656,0.753333333 L60.9277556,5.35703704 L60.9277556,14.5644444 L68.9445656,19.1681481 L76.9613756,14.5644444 L76.9613756,5.35703704 L68.9445656,0.753333333 L68.9445656,0.753333333 Z"/>
          <path d="M84.1765045,1.67407407 L91.3916334,5.77555556 L91.3916334,13.9785185 L84.1765045,18.08 L76.9613756,13.9785185 L76.9613756,5.85925926 L84.1765045,1.67407407 M84.1765045,0.753333333 L76.1596945,5.35703704 L76.1596945,14.5644444 L84.1765045,19.1681481 L92.1933144,14.5644444 L92.1933144,5.35703704 L84.1765045,0.753333333 L84.1765045,0.753333333 Z"/>
          <path d="M99.4084434,1.67407407 L106.623573,5.77555556 L106.623573,13.9785185 L99.4084434,18.08 L92.1933144,13.9785185 L92.1933144,5.85925926 L99.4084434,1.67407407 M99.4084434,0.753333333 L91.3916334,5.35703704 L91.3916334,14.5644444 L99.4084434,19.1681481 L107.425253,14.5644444 L107.425253,5.35703704 L99.4084434,0.753333333 L99.4084434,0.753333333 Z"/>
          <path d="M114.640382,1.67407407 L121.855512,5.77555556 L121.855512,13.9785185 L114.640382,18.08 L107.425253,13.9785185 L107.425253,5.85925926 L114.640382,1.67407407 M114.640382,0.753333333 L106.623573,5.35703704 L106.623573,14.5644444 L114.640382,19.1681481 L122.657193,14.5644444 L122.657193,5.35703704 L114.640382,0.753333333 L114.640382,0.753333333 Z"/>
          <path d="M129.872321,1.67407407 L137.08745,5.77555556 L137.08745,13.9785185 L129.872321,18.08 L122.657193,13.9785185 L122.657193,5.85925926 L129.872321,1.67407407 M129.872321,0.753333333 L121.855512,5.35703704 L121.855512,14.5644444 L129.872321,19.1681481 L137.889132,14.5644444 L137.889132,5.35703704 L129.872321,0.753333333 L129.872321,0.753333333 Z"/>
          <path d="M145.10426,1.67407407 L152.319389,5.77555556 L152.319389,13.9785185 L145.10426,18.08 L137.889132,13.9785185 L137.889132,5.85925926 L145.10426,1.67407407 M145.10426,0.753333333 L137.08745,5.35703704 L137.08745,14.5644444 L145.10426,19.1681481 L153.12107,14.5644444 L153.12107,5.35703704 L145.10426,0.753333333 L145.10426,0.753333333 Z"/>
          <path d="M160.336199,1.67407407 L167.551328,5.77555556 L167.551328,13.9785185 L160.336199,18.08 L153.12107,13.9785185 L153.12107,5.85925926 L160.336199,1.67407407 M160.336199,0.753333333 L152.319389,5.35703704 L152.319389,14.5644444 L160.336199,19.1681481 L168.353009,14.5644444 L168.353009,5.35703704 L160.336199,0.753333333 L160.336199,0.753333333 Z"/>
          <path d="M175.568138,1.67407407 L182.783267,5.77555556 L182.783267,13.9785185 L175.568138,18.08 L168.353009,13.9785185 L168.353009,5.85925926 L175.568138,1.67407407 M175.568138,0.753333333 L167.551328,5.35703704 L167.551328,14.5644444 L175.568138,19.1681481 L183.584948,14.5644444 L183.584948,5.35703704 L175.568138,0.753333333 L175.568138,0.753333333 Z"/>
          <path d="M190.800076,1.67407407 L198.015206,5.77555556 L198.015206,13.9785185 L190.800076,18.08 L183.584948,13.9785185 L183.584948,5.85925926 L190.800076,1.67407407 M190.800076,0.753333333 L182.783267,5.35703704 L182.783267,14.5644444 L190.800076,19.1681481 L198.816887,14.5644444 L198.816887,5.35703704 L190.800076,0.753333333 L190.800076,0.753333333 Z"/>
          <path d="M206.032016,1.67407407 L213.247145,5.77555556 L213.247145,13.9785185 L206.032016,18.08 L198.816887,13.9785185 L198.816887,5.85925926 L206.032016,1.67407407 M206.032016,0.753333333 L198.015206,5.35703704 L198.015206,14.5644444 L206.032016,19.1681481 L214.048826,14.5644444 L214.048826,5.35703704 L206.032016,0.753333333 L206.032016,0.753333333 Z"/>
          <path d="M221.263955,1.67407407 L228.479083,5.77555556 L228.479083,13.9785185 L221.263955,18.08 L214.048826,13.9785185 L214.048826,5.85925926 L221.263955,1.67407407 M221.263955,0.753333333 L213.247145,5.35703704 L213.247145,14.5644444 L221.263955,19.1681481 L229.280765,14.5644444 L229.280765,5.35703704 L221.263955,0.753333333 L221.263955,0.753333333 Z"/>
          <path d="M236.495894,1.67407407 L243.711022,5.77555556 L243.711022,13.9785185 L236.495894,18.08 L229.280765,13.9785185 L229.280765,5.85925926 L236.495894,1.67407407 M236.495894,0.753333333 L228.479083,5.35703704 L228.479083,14.5644444 L236.495894,19.1681481 L244.512703,14.5644444 L244.512703,5.35703704 L236.495894,0.753333333 L236.495894,0.753333333 Z"/>
          <path d="M251.727833,1.67407407 L258.942961,5.77555556 L258.942961,13.9785185 L251.727833,18.08 L244.512703,13.9785185 L244.512703,5.85925926 L251.727833,1.67407407 M251.727833,0.753333333 L243.711022,5.35703704 L243.711022,14.5644444 L251.727833,19.1681481 L259.744642,14.5644444 L259.744642,5.35703704 L251.727833,0.753333333 L251.727833,0.753333333 Z"/>
          <path d="M266.959771,1.67407407 L274.1749,5.77555556 L274.1749,13.9785185 L266.959771,18.08 L259.744642,13.9785185 L259.744642,5.85925926 L266.959771,1.67407407 M266.959771,0.753333333 L258.942961,5.35703704 L258.942961,14.5644444 L266.959771,19.1681481 L274.976581,14.5644444 L274.976581,5.35703704 L266.959771,0.753333333 L266.959771,0.753333333 Z"/>
          <path d="M282.19171,1.67407407 L289.40684,5.77555556 L289.40684,13.9785185 L282.19171,18.08 L274.976581,13.9785185 L274.976581,5.85925926 L282.19171,1.67407407 M282.19171,0.753333333 L274.1749,5.35703704 L274.1749,14.5644444 L282.19171,19.1681481 L290.20852,14.5644444 L290.20852,5.35703704 L282.19171,0.753333333 L282.19171,0.753333333 Z"/>
          <path d="M297.423649,1.67407407 L304.638778,5.77555556 L304.638778,13.9785185 L297.423649,18.08 L290.20852,13.9785185 L290.20852,5.85925926 L297.423649,1.67407407 M297.423649,0.753333333 L289.40684,5.35703704 L289.40684,14.5644444 L297.423649,19.1681481 L305.440459,14.5644444 L305.440459,5.35703704 L297.423649,0.753333333 L297.423649,0.753333333 Z"/>
        </g>
        <g fill="#CECECE" fill-rule="nonzero" transform="translate(7.215 97.448)">
          <path d="M8.41765045,1.75777778 L15.6327794,5.85925926 L15.6327794,14.0622222 L8.41765045,18.1637037 L1.20252149,14.0622222 L1.20252149,5.85925926 L8.41765045,1.75777778 M8.41765045,0.753333333 L0.400840497,5.35703704 L0.400840497,14.5644444 L8.41765045,19.1681481 L16.4344604,14.5644444 L16.4344604,5.35703704 L8.41765045,0.753333333 L8.41765045,0.753333333 Z"/>
          <path d="M23.6495894,1.75777778 L30.8647183,5.85925926 L30.8647183,14.0622222 L23.6495894,18.1637037 L16.4344604,14.0622222 L16.4344604,5.85925926 L23.6495894,1.75777778 M23.6495894,0.753333333 L15.6327794,5.35703704 L15.6327794,14.5644444 L23.6495894,19.1681481 L31.6663993,14.5644444 L31.6663993,5.35703704 L23.6495894,0.753333333 L23.6495894,0.753333333 Z"/>
          <path d="M38.8815283,1.75777778 L46.0966572,5.85925926 L46.0966572,14.0622222 L38.8815283,18.1637037 L31.6663993,14.0622222 L31.6663993,5.85925926 L38.8815283,1.75777778 M38.8815283,0.753333333 L30.8647183,5.35703704 L30.8647183,14.5644444 L38.8815283,19.1681481 L46.8983382,14.5644444 L46.8983382,5.35703704 L38.8815283,0.753333333 L38.8815283,0.753333333 Z"/>
          <path d="M54.1134671,1.75777778 L61.3285962,5.85925926 L61.3285962,14.0622222 L54.1134671,18.1637037 L46.8983382,14.0622222 L46.8983382,5.85925926 L54.1134671,1.75777778 M54.1134671,0.753333333 L46.0966572,5.35703704 L46.0966572,14.5644444 L54.1134671,19.1681481 L62.1302771,14.5644444 L62.1302771,5.35703704 L54.1134671,0.753333333 L54.1134671,0.753333333 Z"/>
          <path d="M69.3454061,1.75777778 L76.560535,5.85925926 L76.560535,14.0622222 L69.3454061,18.1637037 L62.1302771,14.0622222 L62.1302771,5.85925926 L69.3454061,1.75777778 M69.3454061,0.753333333 L61.3285962,5.35703704 L61.3285962,14.5644444 L69.3454061,19.1681481 L77.362216,14.5644444 L77.362216,5.35703704 L69.3454061,0.753333333 L69.3454061,0.753333333 Z"/>
          <path d="M84.577345,1.75777778 L91.7924739,5.85925926 L91.7924739,14.0622222 L84.577345,18.1637037 L77.362216,14.0622222 L77.362216,5.85925926 L84.577345,1.75777778 M84.577345,0.753333333 L76.560535,5.35703704 L76.560535,14.5644444 L84.577345,19.1681481 L92.594155,14.5644444 L92.594155,5.35703704 L84.577345,0.753333333 L84.577345,0.753333333 Z"/>
          <path d="M99.8092839,1.75777778 L107.024412,5.85925926 L107.024412,14.0622222 L99.8092839,18.1637037 L92.594155,14.0622222 L92.594155,5.85925926 L99.8092839,1.75777778 M99.8092839,0.753333333 L91.7924739,5.35703704 L91.7924739,14.5644444 L99.8092839,19.1681481 L107.826093,14.5644444 L107.826093,5.35703704 L99.8092839,0.753333333 L99.8092839,0.753333333 Z"/>
          <path d="M115.041223,1.75777778 L122.256352,5.85925926 L122.256352,14.0622222 L115.041223,18.1637037 L107.826093,14.0622222 L107.826093,5.85925926 L115.041223,1.75777778 M115.041223,0.753333333 L107.024412,5.35703704 L107.024412,14.5644444 L115.041223,19.1681481 L123.058032,14.5644444 L123.058032,5.35703704 L115.041223,0.753333333 L115.041223,0.753333333 Z"/>
          <path d="M130.273162,1.75777778 L137.488291,5.85925926 L137.488291,14.0622222 L130.273162,18.1637037 L123.058032,14.0622222 L123.058032,5.85925926 L130.273162,1.75777778 M130.273162,0.753333333 L122.256352,5.35703704 L122.256352,14.5644444 L130.273162,19.1681481 L138.289972,14.5644444 L138.289972,5.35703704 L130.273162,0.753333333 L130.273162,0.753333333 Z"/>
          <path d="M145.5051,1.75777778 L152.72023,5.85925926 L152.72023,14.0622222 L145.5051,18.1637037 L138.289972,14.0622222 L138.289972,5.85925926 L145.5051,1.75777778 M145.5051,0.753333333 L137.488291,5.35703704 L137.488291,14.5644444 L145.5051,19.1681481 L153.521911,14.5644444 L153.521911,5.35703704 L145.5051,0.753333333 L145.5051,0.753333333 Z"/>
          <path d="M160.737039,1.75777778 L167.952169,5.85925926 L167.952169,14.0622222 L160.737039,18.1637037 L153.521911,14.0622222 L153.521911,5.85925926 L160.737039,1.75777778 M160.737039,0.753333333 L152.72023,5.35703704 L152.72023,14.5644444 L160.737039,19.1681481 L168.75385,14.5644444 L168.75385,5.35703704 L160.737039,0.753333333 L160.737039,0.753333333 Z"/>
          <path d="M175.968978,1.75777778 L183.184107,5.85925926 L183.184107,14.0622222 L175.968978,18.1637037 L168.75385,14.0622222 L168.75385,5.85925926 L175.968978,1.75777778 M175.968978,0.753333333 L167.952169,5.35703704 L167.952169,14.5644444 L175.968978,19.1681481 L183.985789,14.5644444 L183.985789,5.35703704 L175.968978,0.753333333 L175.968978,0.753333333 Z"/>
          <path d="M191.200917,1.75777778 L198.416046,5.85925926 L198.416046,14.0622222 L191.200917,18.1637037 L183.985789,14.0622222 L183.985789,5.85925926 L191.200917,1.75777778 M191.200917,0.753333333 L183.184107,5.35703704 L183.184107,14.5644444 L191.200917,19.1681481 L199.217727,14.5644444 L199.217727,5.35703704 L191.200917,0.753333333 L191.200917,0.753333333 Z"/>
          <path d="M206.432856,1.75777778 L213.647985,5.85925926 L213.647985,14.0622222 L206.432856,18.1637037 L199.217727,14.0622222 L199.217727,5.85925926 L206.432856,1.75777778 M206.432856,0.753333333 L198.416046,5.35703704 L198.416046,14.5644444 L206.432856,19.1681481 L214.449666,14.5644444 L214.449666,5.35703704 L206.432856,0.753333333 L206.432856,0.753333333 Z"/>
          <path d="M221.664796,1.75777778 L228.879924,5.85925926 L228.879924,14.0622222 L221.664796,18.1637037 L214.449666,14.0622222 L214.449666,5.85925926 L221.664796,1.75777778 M221.664796,0.753333333 L213.647985,5.35703704 L213.647985,14.5644444 L221.664796,19.1681481 L229.681605,14.5644444 L229.681605,5.35703704 L221.664796,0.753333333 L221.664796,0.753333333 Z"/>
          <path d="M236.896734,1.75777778 L244.111863,5.85925926 L244.111863,14.0622222 L236.896734,18.1637037 L229.681605,14.0622222 L229.681605,5.85925926 L236.896734,1.75777778 M236.896734,0.753333333 L228.879924,5.35703704 L228.879924,14.5644444 L236.896734,19.1681481 L244.913544,14.5644444 L244.913544,5.35703704 L236.896734,0.753333333 L236.896734,0.753333333 Z"/>
          <path d="M252.128673,1.75777778 L259.343802,5.85925926 L259.343802,14.0622222 L252.128673,18.1637037 L244.913544,14.0622222 L244.913544,5.85925926 L252.128673,1.75777778 M252.128673,0.753333333 L244.111863,5.35703704 L244.111863,14.5644444 L252.128673,19.1681481 L260.145483,14.5644444 L260.145483,5.35703704 L252.128673,0.753333333 L252.128673,0.753333333 Z"/>
          <path d="M267.360612,1.75777778 L274.57574,5.85925926 L274.57574,14.0622222 L267.360612,18.1637037 L260.145483,14.0622222 L260.145483,5.85925926 L267.360612,1.75777778 M267.360612,0.753333333 L259.343802,5.35703704 L259.343802,14.5644444 L267.360612,19.1681481 L275.377422,14.5644444 L275.377422,5.35703704 L267.360612,0.753333333 L267.360612,0.753333333 Z"/>
          <path d="M282.592551,1.75777778 L289.807679,5.85925926 L289.807679,14.0622222 L282.592551,18.1637037 L275.377422,14.0622222 L275.377422,5.85925926 L282.592551,1.75777778 M282.592551,0.753333333 L274.57574,5.35703704 L274.57574,14.5644444 L282.592551,19.1681481 L290.60936,14.5644444 L290.60936,5.35703704 L282.592551,0.753333333 L282.592551,0.753333333 Z"/>
          <path d="M297.82449,1.75777778 L305.039619,5.85925926 L305.039619,14.0622222 L297.82449,18.1637037 L290.60936,14.0622222 L290.60936,5.85925926 L297.82449,1.75777778 M297.82449,0.753333333 L289.807679,5.35703704 L289.807679,14.5644444 L297.82449,19.1681481 L305.841299,14.5644444 L305.841299,5.35703704 L297.82449,0.753333333 L297.82449,0.753333333 Z"/>
        </g>
        <polyline stroke="#FFF" stroke-width="7.89" points="0 117 0 0 310.144 0 310.144 117"/>
      </g>
      <polyline stroke="#FFF" stroke-width="7.89" points="32.533 117 32.533 0 342.677 0 342.677 117"/>
    </g>
    <g fill-rule="nonzero" transform="translate(456.29 14.276)">
      <polygon fill="#000" points="0 43.527 18.727 80 298.829 80 317.456 43.527" opacity=".1"/>
      <rect width="280" height="80" x="18.806" fill="#FFF"/>
      <path fill="#37003C" d="M149.105503,23 C150.905503,23.8 152.105503,24.9 152.305503,25 C152.205503,24.5 151.805503,22.3 151.605503,20.9 C152.705503,21.6 155.105503,23.3 155.905503,23.9 C156.205503,22.9 157.405503,19.6 157.405503,19.6 C157.405503,19.6 159.405503,22.9 159.805503,23.5 C160.205503,23.1 162.705503,20.3 163.305503,19.6 C163.405503,21.2 163.605503,23.4 163.605503,23.8 C163.705503,23.6 164.705503,22.3 166.205503,21.1 C165.505503,22.4 165.205503,24.3 165.005503,25.8 C163.505503,25.4 161.805503,25.1 160.105503,25.1 C156.905503,25.1 153.805503,26 151.205503,27.4 C150.805503,26 150.105503,24.2 149.105503,23 Z M173.805503,51.3 L172.405503,49.7 C172.005503,54 169.905503,57.6 166.105503,60.1 L165.505503,57.8 C162.205503,60.2 156.705503,61.7 151.905503,59 C152.505503,56 153.005503,52.9 151.905503,49.2 C149.205503,53.3 146.905503,54.9 146.905503,54.9 C145.105503,51.9 145.305503,45.8 145.805503,44.1 L142.805503,45 C142.805503,43 144.305503,38.7 146.405503,36.2 L144.505503,35.9 L144.505503,35.9 C145.805503,33.3 147.705503,31.1 150.005503,29.4 L150.005503,29.4 C149.305503,30.5 149.305503,33.2 151.305503,34.2 C150.405503,32.7 150.305503,30.8 151.205503,29.8 C152.105503,28.8 153.605503,29.2 154.605503,29.9 C154.305503,29.1 153.505503,28 152.205503,27.9 L152.205503,27.9 C154.605503,26.7 157.305503,26 160.205503,26 C160.705503,26 161.305503,26 161.805503,26.1 L161.805503,26.1 C162.605503,26.4 163.905503,27.6 164.405503,28.3 C164.405503,28.3 164.405503,27.4 164.005503,26.4 C167.105503,27.2 168.605503,28.4 169.205503,29 C169.305503,30.3 169.705503,31.2 170.305503,32.4 C169.305503,31.3 166.805503,29.4 165.505503,29 C165.505503,29 165.405503,30.2 165.005503,30.7 C162.605503,29 161.405503,28.5 161.405503,28.5 C158.805503,28.9 157.105503,29.9 156.105503,30.7 L156.905503,31.4 C155.305503,31.9 154.305503,33.3 154.305503,33.3 L155.705503,33.5 C155.705503,33.5 155.605503,35.2 157.605503,36.2 C159.405503,37.1 161.905503,36 164.405503,37 C162.805503,35.2 161.705503,34.4 161.705503,34.4 C161.705503,34.4 161.105503,34.3 160.605503,34.3 C160.005503,34.3 159.205503,34.4 158.305503,34.1 C157.905503,33.9 157.405503,33.6 157.005503,33.4 C157.005503,33.4 158.105503,32.3 159.705503,32 C159.705503,32 161.205503,32.4 162.305503,33.3 C163.105503,32.5 163.905503,32.6 163.905503,32.6 C163.905503,32.6 163.105503,33.3 163.305503,34.2 C164.505503,35.2 165.705503,36.7 165.705503,36.7 C167.005503,36 169.805503,36.2 170.305503,36.8 C169.605503,35.9 168.505503,35.1 167.705503,34.4 C167.605503,34 166.705503,32.8 166.605503,32.7 C166.605503,32.7 167.405503,33 168.205503,33.6 C168.405503,33.3 168.805503,33 169.405503,32.8 C170.005503,33.3 170.105503,34 170.005503,34.1 C169.705503,34.4 169.505503,34.5 169.505503,34.5 L170.905503,36 L171.005503,34.9 C174.305503,39.6 176.005503,44.8 173.805503,51.3 Z M167.905503,41.7 L167.905503,39.4 C167.905503,39.4 166.905503,39.1 165.805503,38.2 C163.605503,38.5 160.905503,40.8 160.905503,40.8 C160.905503,40.8 161.805503,42.5 162.805503,44.4 C164.505503,44.5 167.105503,42.3 167.905503,41.7 Z M170.105503,45.9 C170.105503,45.9 169.905503,44.9 169.205503,44.1 L167.505503,44.1 C167.505503,44.1 165.205503,46.1 163.805503,46.1 C163.805503,46.1 164.605503,47.6 165.005503,48.3 C165.805503,48.1 167.205503,47.5 167.705503,46.9 C167.705503,46.9 168.105503,48.1 168.005503,49.5 C168.705503,49 169.805503,47.8 170.105503,45.9 Z M170.805503,38.3 C169.905503,39 169.205503,39.4 169.205503,39.4 L169.205503,41.7 C169.805503,42.4 170.405503,43 170.905503,44 C171.805503,42.5 171.605503,40.2 170.805503,38.3 Z M50.0055028,48.5 L50.0055028,28.9 L56.2055028,28.9 C60.2055028,28.9 63.3055028,31.3 63.3055028,35.4 C63.3055028,39.6 60.3055028,42 56.2055028,42 L53.8055028,42 L53.8055028,48.4 L50.0055028,48.5 L50.0055028,48.5 Z M53.8055028,38.4 L56.0055028,38.4 C57.9055028,38.4 59.3055028,37.3 59.3055028,35.4 C59.3055028,33.5 57.9055028,32.5 56.0055028,32.5 L53.8055028,32.5 L53.8055028,38.4 L53.8055028,38.4 Z M107.705503,35.6 L111.305503,35.6 L111.305503,48.5 L107.705503,48.5 L107.705503,35.6 Z M109.605503,33.9 C108.305503,33.9 107.405503,32.9 107.405503,31.7 C107.405503,30.4 108.405503,29.5 109.605503,29.5 C110.805503,29.5 111.805503,30.5 111.805503,31.7 C111.805503,32.9 110.805503,33.9 109.605503,33.9 M102.405503,40.9 C102.405503,39.5 101.605503,38.6 100.405503,38.6 C99.0055028,38.6 98.3055028,39.5 98.3055028,40.9 L98.3055028,48.5 L94.7055028,48.5 L94.7055028,40.9 C94.7055028,39.5 93.9055028,38.6 92.7055028,38.6 C91.3055028,38.6 90.6055028,39.5 90.6055028,40.9 L90.6055028,48.5 L87.0055028,48.5 L87.0055028,35.6 L90.1055028,35.6 L90.5055028,37.3 C90.5055028,37.3 91.3055028,35.3 93.7055028,35.3 C95.2055028,35.3 96.4055028,35.9 97.3055028,37.2 L97.4055028,37.3 L97.5055028,37.2 C98.8055028,35.4 100.305503,35.3 101.305503,35.3 C104.005503,35.3 105.905503,37.4 105.905503,40.3 L105.905503,48.5 L102.305503,48.5 L102.405503,40.9 L102.405503,40.9 Z M127.305503,48.5 L127.305503,35.6 L130.405503,35.6 L130.805503,37.5 C131.405503,36.3 132.505503,35.5 134.105503,35.5 C134.405503,35.5 134.805503,35.5 135.105503,35.6 L135.105503,39 C134.705503,38.9 134.305503,38.9 133.805503,38.9 C132.105503,38.9 130.905503,40 130.905503,42 L130.905503,48.5 L127.305503,48.5 Z M64.5055028,48.5 L64.5055028,35.6 L67.6055028,35.6 L68.0055028,37.5 C68.6055028,36.3 69.7055028,35.5 71.3055028,35.5 C71.6055028,35.5 72.0055028,35.5 72.3055028,35.6 L72.3055028,39 C71.9055028,38.9 71.5055028,38.9 71.0055028,38.9 C69.3055028,38.9 68.1055028,40 68.1055028,42 L68.1055028,48.5 L64.5055028,48.5 Z M119.605503,48.8 C115.605503,48.8 112.705503,46.1 112.705503,42.1 C112.705503,38.5 115.305503,35.3 119.505503,35.3 C122.605503,35.3 125.805503,37.7 125.805503,42 C125.805503,42.3 125.805503,42.8 125.705503,43.3 L116.305503,43.3 C116.605503,44.7 117.905503,45.7 119.505503,45.7 C120.905503,45.7 122.005503,45.2 123.005503,44.2 L125.205503,46.4 C123.805503,48 121.805503,48.8 119.605503,48.8 M119.405503,38.4 C117.905503,38.4 116.705503,39.3 116.405503,40.7 L122.405503,40.7 C122.105503,39.3 120.905503,38.4 119.405503,38.4 M79.4055028,48.8 C75.4055028,48.8 72.5055028,46.1 72.5055028,42.1 C72.5055028,38.5 75.1055028,35.3 79.3055028,35.3 C82.4055028,35.3 85.6055028,37.7 85.6055028,42 C85.6055028,42.3 85.6055028,42.8 85.5055028,43.3 L76.2055028,43.3 C76.5055028,44.7 77.8055028,45.7 79.4055028,45.7 C80.8055028,45.7 81.9055028,45.2 82.9055028,44.2 L85.1055028,46.4 C83.6055028,48 81.6055028,48.8 79.4055028,48.8 M79.2055028,38.4 C77.7055028,38.4 76.5055028,39.3 76.2055028,40.7 L82.2055028,40.7 C81.9055028,39.3 80.7055028,38.4 79.2055028,38.4 M246.805503,48.9 C249.605503,48.9 253.105503,47.4 253.105503,42.6 L253.105503,35.7 L249.505503,35.7 L249.505503,42.3 C249.505503,44.4 248.305503,45.5 246.805503,45.5 C245.105503,45.5 244.105503,44.5 244.105503,42.3 L244.105503,35.7 L240.505503,35.7 L240.505503,42.6 C240.505503,47.3 244.005503,48.9 246.805503,48.9 M216.205503,48.9 C212.805503,48.9 209.805503,45.8 209.805503,42.1 C209.805503,38.5 212.805503,35.5 216.205503,35.5 C218.105503,35.5 219.405503,36.2 220.205503,37.4 L220.605503,35.7 L223.705503,35.7 L223.705503,48.6 L220.605503,48.6 L220.205503,47 C219.405503,48.1 217.905503,48.9 216.205503,48.9 M216.905503,38.7 C215.005503,38.7 213.505503,40.1 213.505503,42.1 C213.505503,44 214.905503,45.5 216.905503,45.5 C218.805503,45.5 220.205503,44 220.205503,42.1 C220.205503,40.1 218.805503,38.7 216.905503,38.7 M194.605503,48.6 L194.605503,45 L186.305503,45 L186.305503,29 L182.505503,29 L182.505503,48.6 L194.605503,48.6 Z M202.305503,48.9 C198.305503,48.9 195.405503,46.2 195.405503,42.2 C195.405503,38.6 198.005503,35.4 202.205503,35.4 C205.305503,35.4 208.505503,37.8 208.505503,42.1 C208.505503,42.4 208.505503,42.9 208.405503,43.4 L199.005503,43.4 C199.305503,44.8 200.605503,45.8 202.205503,45.8 C203.605503,45.8 204.705503,45.3 205.705503,44.3 L207.905503,46.5 C206.505503,48 204.505503,48.9 202.305503,48.9 M202.105503,38.4 C200.605503,38.4 199.405503,39.3 199.105503,40.7 L205.105503,40.7 C204.805503,39.4 203.605503,38.4 202.105503,38.4 M261.305503,48.9 C257.305503,48.9 254.405503,46.2 254.405503,42.2 C254.405503,38.6 257.005503,35.4 261.205503,35.4 C264.305503,35.4 267.505503,37.8 267.505503,42.1 C267.505503,42.4 267.505503,42.9 267.405503,43.4 L258.005503,43.4 C258.305503,44.8 259.605503,45.8 261.205503,45.8 C262.605503,45.8 263.705503,45.3 264.705503,44.3 L266.905503,46.5 C265.505503,48 263.405503,48.9 261.305503,48.9 M261.105503,38.4 C259.605503,38.4 258.405503,39.3 258.105503,40.7 L264.105503,40.7 C263.705503,39.4 262.505503,38.4 261.105503,38.4 M232.105503,38.7 C230.205503,38.7 228.705503,40.1 228.705503,42.1 C228.705503,44 230.205503,45.5 232.105503,45.5 C234.005503,45.5 235.505503,44 235.505503,42.1 C235.505503,40.1 234.005503,38.7 232.105503,38.7 M235.305503,37.3 L235.705503,35.7 L238.805503,35.7 L238.805503,48 C238.805503,50.4 238.105503,52.1 236.505503,53.3 C235.305503,54.2 233.705503,54.9 231.705503,54.9 C229.005503,54.9 227.105503,54 225.505503,52.5 L227.505503,49.8 C228.505503,50.7 229.805503,51.5 231.405503,51.5 C234.005503,51.5 235.205503,50.2 235.205503,48.3 L235.205503,47.4 C234.105503,48.5 232.905503,48.9 231.505503,48.9 C227.805503,48.9 225.005503,45.9 225.005503,42.1 C225.005503,38.3 228.005503,35.5 231.605503,35.5 C233.105503,35.5 234.505503,36.2 235.305503,37.3"/>
    </g>
    <g fill-rule="nonzero" transform="translate(1384.735 14.276)">
      <polygon fill="#000" points="0 43.527 18.727 80 298.829 80 317.456 43.527" opacity=".1"/>
      <rect width="280" height="80" x="18.806" fill="#FFF"/>
      <path fill="#37003C" d="M149.105503,23 C150.905503,23.8 152.105503,24.9 152.305503,25 C152.205503,24.5 151.805503,22.3 151.605503,20.9 C152.705503,21.6 155.105503,23.3 155.905503,23.9 C156.205503,22.9 157.405503,19.6 157.405503,19.6 C157.405503,19.6 159.405503,22.9 159.805503,23.5 C160.205503,23.1 162.705503,20.3 163.305503,19.6 C163.405503,21.2 163.605503,23.4 163.605503,23.8 C163.705503,23.6 164.705503,22.3 166.205503,21.1 C165.505503,22.4 165.205503,24.3 165.005503,25.8 C163.505503,25.4 161.805503,25.1 160.105503,25.1 C156.905503,25.1 153.805503,26 151.205503,27.4 C150.805503,26 150.105503,24.2 149.105503,23 Z M173.805503,51.3 L172.405503,49.7 C172.005503,54 169.905503,57.6 166.105503,60.1 L165.505503,57.8 C162.205503,60.2 156.705503,61.7 151.905503,59 C152.505503,56 153.005503,52.9 151.905503,49.2 C149.205503,53.3 146.905503,54.9 146.905503,54.9 C145.105503,51.9 145.305503,45.8 145.805503,44.1 L142.805503,45 C142.805503,43 144.305503,38.7 146.405503,36.2 L144.505503,35.9 L144.505503,35.9 C145.805503,33.3 147.705503,31.1 150.005503,29.4 L150.005503,29.4 C149.305503,30.5 149.305503,33.2 151.305503,34.2 C150.405503,32.7 150.305503,30.8 151.205503,29.8 C152.105503,28.8 153.605503,29.2 154.605503,29.9 C154.305503,29.1 153.505503,28 152.205503,27.9 L152.205503,27.9 C154.605503,26.7 157.305503,26 160.205503,26 C160.705503,26 161.305503,26 161.805503,26.1 L161.805503,26.1 C162.605503,26.4 163.905503,27.6 164.405503,28.3 C164.405503,28.3 164.405503,27.4 164.005503,26.4 C167.105503,27.2 168.605503,28.4 169.205503,29 C169.305503,30.3 169.705503,31.2 170.305503,32.4 C169.305503,31.3 166.805503,29.4 165.505503,29 C165.505503,29 165.405503,30.2 165.005503,30.7 C162.605503,29 161.405503,28.5 161.405503,28.5 C158.805503,28.9 157.105503,29.9 156.105503,30.7 L156.905503,31.4 C155.305503,31.9 154.305503,33.3 154.305503,33.3 L155.705503,33.5 C155.705503,33.5 155.605503,35.2 157.605503,36.2 C159.405503,37.1 161.905503,36 164.405503,37 C162.805503,35.2 161.705503,34.4 161.705503,34.4 C161.705503,34.4 161.105503,34.3 160.605503,34.3 C160.005503,34.3 159.205503,34.4 158.305503,34.1 C157.905503,33.9 157.405503,33.6 157.005503,33.4 C157.005503,33.4 158.105503,32.3 159.705503,32 C159.705503,32 161.205503,32.4 162.305503,33.3 C163.105503,32.5 163.905503,32.6 163.905503,32.6 C163.905503,32.6 163.105503,33.3 163.305503,34.2 C164.505503,35.2 165.705503,36.7 165.705503,36.7 C167.005503,36 169.805503,36.2 170.305503,36.8 C169.605503,35.9 168.505503,35.1 167.705503,34.4 C167.605503,34 166.705503,32.8 166.605503,32.7 C166.605503,32.7 167.405503,33 168.205503,33.6 C168.405503,33.3 168.805503,33 169.405503,32.8 C170.005503,33.3 170.105503,34 170.005503,34.1 C169.705503,34.4 169.505503,34.5 169.505503,34.5 L170.905503,36 L171.005503,34.9 C174.305503,39.6 176.005503,44.8 173.805503,51.3 Z M167.905503,41.7 L167.905503,39.4 C167.905503,39.4 166.905503,39.1 165.805503,38.2 C163.605503,38.5 160.905503,40.8 160.905503,40.8 C160.905503,40.8 161.805503,42.5 162.805503,44.4 C164.505503,44.5 167.105503,42.3 167.905503,41.7 Z M170.105503,45.9 C170.105503,45.9 169.905503,44.9 169.205503,44.1 L167.505503,44.1 C167.505503,44.1 165.205503,46.1 163.805503,46.1 C163.805503,46.1 164.605503,47.6 165.005503,48.3 C165.805503,48.1 167.205503,47.5 167.705503,46.9 C167.705503,46.9 168.105503,48.1 168.005503,49.5 C168.705503,49 169.805503,47.8 170.105503,45.9 Z M170.805503,38.3 C169.905503,39 169.205503,39.4 169.205503,39.4 L169.205503,41.7 C169.805503,42.4 170.405503,43 170.905503,44 C171.805503,42.5 171.605503,40.2 170.805503,38.3 Z M50.0055028,48.5 L50.0055028,28.9 L56.2055028,28.9 C60.2055028,28.9 63.3055028,31.3 63.3055028,35.4 C63.3055028,39.6 60.3055028,42 56.2055028,42 L53.8055028,42 L53.8055028,48.4 L50.0055028,48.5 L50.0055028,48.5 Z M53.8055028,38.4 L56.0055028,38.4 C57.9055028,38.4 59.3055028,37.3 59.3055028,35.4 C59.3055028,33.5 57.9055028,32.5 56.0055028,32.5 L53.8055028,32.5 L53.8055028,38.4 L53.8055028,38.4 Z M107.705503,35.6 L111.305503,35.6 L111.305503,48.5 L107.705503,48.5 L107.705503,35.6 Z M109.605503,33.9 C108.305503,33.9 107.405503,32.9 107.405503,31.7 C107.405503,30.4 108.405503,29.5 109.605503,29.5 C110.805503,29.5 111.805503,30.5 111.805503,31.7 C111.805503,32.9 110.805503,33.9 109.605503,33.9 M102.405503,40.9 C102.405503,39.5 101.605503,38.6 100.405503,38.6 C99.0055028,38.6 98.3055028,39.5 98.3055028,40.9 L98.3055028,48.5 L94.7055028,48.5 L94.7055028,40.9 C94.7055028,39.5 93.9055028,38.6 92.7055028,38.6 C91.3055028,38.6 90.6055028,39.5 90.6055028,40.9 L90.6055028,48.5 L87.0055028,48.5 L87.0055028,35.6 L90.1055028,35.6 L90.5055028,37.3 C90.5055028,37.3 91.3055028,35.3 93.7055028,35.3 C95.2055028,35.3 96.4055028,35.9 97.3055028,37.2 L97.4055028,37.3 L97.5055028,37.2 C98.8055028,35.4 100.305503,35.3 101.305503,35.3 C104.005503,35.3 105.905503,37.4 105.905503,40.3 L105.905503,48.5 L102.305503,48.5 L102.405503,40.9 L102.405503,40.9 Z M127.305503,48.5 L127.305503,35.6 L130.405503,35.6 L130.805503,37.5 C131.405503,36.3 132.505503,35.5 134.105503,35.5 C134.405503,35.5 134.805503,35.5 135.105503,35.6 L135.105503,39 C134.705503,38.9 134.305503,38.9 133.805503,38.9 C132.105503,38.9 130.905503,40 130.905503,42 L130.905503,48.5 L127.305503,48.5 Z M64.5055028,48.5 L64.5055028,35.6 L67.6055028,35.6 L68.0055028,37.5 C68.6055028,36.3 69.7055028,35.5 71.3055028,35.5 C71.6055028,35.5 72.0055028,35.5 72.3055028,35.6 L72.3055028,39 C71.9055028,38.9 71.5055028,38.9 71.0055028,38.9 C69.3055028,38.9 68.1055028,40 68.1055028,42 L68.1055028,48.5 L64.5055028,48.5 Z M119.605503,48.8 C115.605503,48.8 112.705503,46.1 112.705503,42.1 C112.705503,38.5 115.305503,35.3 119.505503,35.3 C122.605503,35.3 125.805503,37.7 125.805503,42 C125.805503,42.3 125.805503,42.8 125.705503,43.3 L116.305503,43.3 C116.605503,44.7 117.905503,45.7 119.505503,45.7 C120.905503,45.7 122.005503,45.2 123.005503,44.2 L125.205503,46.4 C123.805503,48 121.805503,48.8 119.605503,48.8 M119.405503,38.4 C117.905503,38.4 116.705503,39.3 116.405503,40.7 L122.405503,40.7 C122.105503,39.3 120.905503,38.4 119.405503,38.4 M79.4055028,48.8 C75.4055028,48.8 72.5055028,46.1 72.5055028,42.1 C72.5055028,38.5 75.1055028,35.3 79.3055028,35.3 C82.4055028,35.3 85.6055028,37.7 85.6055028,42 C85.6055028,42.3 85.6055028,42.8 85.5055028,43.3 L76.2055028,43.3 C76.5055028,44.7 77.8055028,45.7 79.4055028,45.7 C80.8055028,45.7 81.9055028,45.2 82.9055028,44.2 L85.1055028,46.4 C83.6055028,48 81.6055028,48.8 79.4055028,48.8 M79.2055028,38.4 C77.7055028,38.4 76.5055028,39.3 76.2055028,40.7 L82.2055028,40.7 C81.9055028,39.3 80.7055028,38.4 79.2055028,38.4 M246.805503,48.9 C249.605503,48.9 253.105503,47.4 253.105503,42.6 L253.105503,35.7 L249.505503,35.7 L249.505503,42.3 C249.505503,44.4 248.305503,45.5 246.805503,45.5 C245.105503,45.5 244.105503,44.5 244.105503,42.3 L244.105503,35.7 L240.505503,35.7 L240.505503,42.6 C240.505503,47.3 244.005503,48.9 246.805503,48.9 M216.205503,48.9 C212.805503,48.9 209.805503,45.8 209.805503,42.1 C209.805503,38.5 212.805503,35.5 216.205503,35.5 C218.105503,35.5 219.405503,36.2 220.205503,37.4 L220.605503,35.7 L223.705503,35.7 L223.705503,48.6 L220.605503,48.6 L220.205503,47 C219.405503,48.1 217.905503,48.9 216.205503,48.9 M216.905503,38.7 C215.005503,38.7 213.505503,40.1 213.505503,42.1 C213.505503,44 214.905503,45.5 216.905503,45.5 C218.805503,45.5 220.205503,44 220.205503,42.1 C220.205503,40.1 218.805503,38.7 216.905503,38.7 M194.605503,48.6 L194.605503,45 L186.305503,45 L186.305503,29 L182.505503,29 L182.505503,48.6 L194.605503,48.6 Z M202.305503,48.9 C198.305503,48.9 195.405503,46.2 195.405503,42.2 C195.405503,38.6 198.005503,35.4 202.205503,35.4 C205.305503,35.4 208.505503,37.8 208.505503,42.1 C208.505503,42.4 208.505503,42.9 208.405503,43.4 L199.005503,43.4 C199.305503,44.8 200.605503,45.8 202.205503,45.8 C203.605503,45.8 204.705503,45.3 205.705503,44.3 L207.905503,46.5 C206.505503,48 204.505503,48.9 202.305503,48.9 M202.105503,38.4 C200.605503,38.4 199.405503,39.3 199.105503,40.7 L205.105503,40.7 C204.805503,39.4 203.605503,38.4 202.105503,38.4 M261.305503,48.9 C257.305503,48.9 254.405503,46.2 254.405503,42.2 C254.405503,38.6 257.005503,35.4 261.205503,35.4 C264.305503,35.4 267.505503,37.8 267.505503,42.1 C267.505503,42.4 267.505503,42.9 267.405503,43.4 L258.005503,43.4 C258.305503,44.8 259.605503,45.8 261.205503,45.8 C262.605503,45.8 263.705503,45.3 264.705503,44.3 L266.905503,46.5 C265.505503,48 263.405503,48.9 261.305503,48.9 M261.105503,38.4 C259.605503,38.4 258.405503,39.3 258.105503,40.7 L264.105503,40.7 C263.705503,39.4 262.505503,38.4 261.105503,38.4 M232.105503,38.7 C230.205503,38.7 228.705503,40.1 228.705503,42.1 C228.705503,44 230.205503,45.5 232.105503,45.5 C234.005503,45.5 235.505503,44 235.505503,42.1 C235.505503,40.1 234.005503,38.7 232.105503,38.7 M235.305503,37.3 L235.705503,35.7 L238.805503,35.7 L238.805503,48 C238.805503,50.4 238.105503,52.1 236.505503,53.3 C235.305503,54.2 233.705503,54.9 231.705503,54.9 C229.005503,54.9 227.105503,54 225.505503,52.5 L227.505503,49.8 C228.505503,50.7 229.805503,51.5 231.405503,51.5 C234.005503,51.5 235.205503,50.2 235.205503,48.3 L235.205503,47.4 C234.105503,48.5 232.905503,48.9 231.505503,48.9 C227.805503,48.9 225.005503,45.9 225.005503,42.1 C225.005503,38.3 228.005503,35.5 231.605503,35.5 C233.105503,35.5 234.505503,36.2 235.305503,37.3"/>
    </g>
    <g transform="translate(34.792 115.516)">
      <g transform="translate(543.85)">
        <path stroke="#FFF" stroke-width="5" d="M964.128212,2.68594495 L1003.99881,219.684062 L2.94108221,219.684062 L38.2191984,3.5228689 L964.128212,2.68594495 Z"/>
        <path stroke="#FFF" stroke-width="5" d="M247.521831 2.5L747.012571 2.5 756.744107 88.5 239.444595 88.5 247.521831 2.5zM294.708426 219.760036C425.630545 298.426703 562.745614 298.426703 706.053632 219.760036"/>
        <ellipse cx="496.401" cy="148.75" fill="#FFF" rx="11.25" ry="5.75"/>
      </g>
      <path stroke="#FFF" stroke-width="5" d="M1718.06366,2.52406188 L2081.20223,1252.52406 L3.33808199,1252.52406 L369.77541,2.52406188 L1718.06366,2.52406188 Z"/>
      <g transform="translate(63.903 847.76)">
        <rect width="1957.396" height="6.8" y="190.6" fill="#FFF"/>
        <ellipse cx="979.655" cy="194.21" fill="#FFF" rx="26.299" ry="22.679"/>
        <ellipse cx="979.5" cy="201.5" stroke="#FFF" stroke-width="8" rx="235.5" ry="197.5"/>
      </g>
      <path stroke="#FFF" stroke-width="4" d="M-1.13686838e-13 14.7303337C13.3808008 13.2106681 21.2982054 8.61736178 23.7522136.950414643M1358.27452 14.3847781C1350.35921 14.0861206 1345.315 13.2487119 1343.14189 11.8725519 1336.00701 7.35425318 1335.55939 0 1335.55939 0" transform="translate(364.349 2.374)"/>
    </g>
  </g>
</svg>
