<svg xmlns="http://www.w3.org/2000/svg" xmlns:xlink="http://www.w3.org/1999/xlink" width="89" height="89" viewBox="0 0 89 89">
  <defs>
    <polygon id="pl-logo-lion-a" points=".91 .994 88.91 .994 88.91 88.994 .91 88.994"/>
  </defs>
  <g fill="none" fill-rule="evenodd">
    <mask id="pl-logo-lion-b" fill="#fff">
      <use xlink:href="#pl-logo-lion-a"/>
    </mask>
    <path fill="#d8d8d8" d="M69.1451528,41.6004643 C67.4369938,43.0358214 65.9869199,43.83225 65.9869199,43.83225 L66.001596,48.3743929 C67.2268744,49.7336786 68.4342551,50.8626071 69.3363006,52.9151071 C71.0473233,49.8440357 70.7233744,45.31725 69.1451528,41.6004643 M67.7534256,56.4668929 C67.7534256,56.4668929 67.4054938,54.5965357 65.9192665,52.8479643 L62.5326585,52.9318929 C62.5326585,52.9318929 57.9622949,56.8508214 55.1749028,56.9411786 C55.1749028,56.9411786 56.7108858,59.7933214 57.4826358,61.2808214 C59.0196926,60.9486786 61.7172381,59.7376071 62.804346,58.4783214 C62.804346,58.4783214 63.5224028,60.7904643 63.3849483,63.5183214 C64.9109085,62.62975 67.017829,60.2411786 67.7534256,56.4668929 M63.3849483,48.2636786 L63.379579,43.74225 C63.379579,43.74225 61.3560619,43.0918929 59.1915108,41.4186786 C54.8491642,42.0740357 49.5886642,46.4336786 49.5886642,46.4336786 C49.5886642,46.4336786 51.3684142,49.7979643 53.3088858,53.4254643 C56.7284256,53.8951071 61.7609085,49.5958214 63.3849483,48.2636786 M74.9654938,67.1136786 L72.1720165,64.0254643 C71.3730619,72.36975 67.2812835,79.4515357 59.7592267,84.38975 L58.6137722,79.8886786 C52.2300108,84.4936786 41.2726642,87.4758214 31.8616813,82.1676071 C33.0282551,76.2179643 34.0652494,70.19225 31.8394881,62.97225 C26.6294597,71.0236786 22.0132778,74.1779643 22.0132778,74.1779643 C18.4953006,68.2818929 18.8113744,56.4440357 19.8605392,52.9601071 L14.0001074,54.7718929 C14.0001074,50.7965357 16.8723347,42.3561786 21.0260392,37.61975 L17.3638063,37.0365357 L17.3627324,37.03725 C19.8494426,31.9626071 23.5567778,27.59225 28.1031585,24.3068929 L28.107454,24.3043929 C26.7436472,26.45725 26.7239597,31.7583214 30.7233858,33.7786786 C29.0248915,30.80975 28.8212153,27.14225 30.5905847,25.2393929 C32.367471,23.3279643 35.3481585,23.9833214 37.2514028,25.4711786 C36.6858347,23.8151071 35.0252835,21.7304643 32.5374994,21.5883214 L32.5357097,21.5890357 C37.234579,19.17725 42.5638063,17.8161786 48.211971,17.8161786 C49.2665051,17.8161786 50.3099426,17.8636786 51.3404938,17.9565357 L51.3419256,17.95725 C52.9827892,18.6158214 55.3932551,20.9226071 56.5172324,22.3579643 C56.5172324,22.3579643 56.5959824,20.66475 55.6531301,18.6236786 C61.7662778,20.1051071 64.6771642,22.5865357 65.8999369,23.7886786 C66.1501472,26.41975 66.9412267,28.0029643 67.9875278,30.5101071 C66.0073233,28.2954643 61.0321131,24.7268929 58.6588744,23.8711786 C58.6588744,23.8711786 58.4627153,26.1554643 57.6469369,27.2551071 C52.9194313,23.8486786 50.5952324,22.9954643 50.5952324,22.9954643 C45.4016699,23.7343929 42.0644597,25.7340357 40.2517778,27.3040357 L41.8310733,28.6465357 C38.7011188,29.6079643 36.6690108,32.2926071 36.6690108,32.2926071 C36.6894142,32.3386786 39.4642778,32.7340357 39.4642778,32.7340357 C39.4642778,32.7340357 39.1804199,35.9854643 43.2611017,38.0240357 C46.7525903,39.7683214 51.7804199,37.60475 56.5118631,39.4983214 C53.3990903,35.9151071 51.2538688,34.31225 51.2538688,34.31225 C51.2538688,34.31225 50.015346,34.0558214 49.1444426,34.0615357 C48.0584085,34.0686786 46.4411699,34.2840357 44.660704,33.5929643 C43.8134256,33.2640357 42.8243972,32.6786786 42.0476358,32.1929643 C42.0476358,32.1929643 44.2308006,29.9551071 47.4208915,29.4601071 C47.4208915,29.4601071 50.2981301,30.2676071 52.5783006,31.9518929 C54.0942381,30.4793929 55.6760392,30.5243929 55.6760392,30.5243929 C55.6760392,30.5243929 54.110704,31.98725 54.583204,33.7536786 C56.8640903,35.7808214 59.3332608,38.6811786 59.3332608,38.6811786 C61.8496813,37.3033214 67.3206585,37.61975 68.4446358,38.9204643 C67.0206926,37.0811786 64.9678233,35.5411786 63.379579,34.2254643 C63.1862835,33.5358214 61.4534256,31.1261786 61.1613347,30.9061786 C61.1613347,30.9061786 62.8100733,31.4143929 64.2784028,32.7304643 C64.7040108,32.1301071 65.4925847,31.51725 66.5714597,31.2479643 C67.6804028,32.17475 67.8751301,33.5976071 67.8450619,33.8365357 C67.3435676,34.4286786 66.8560335,34.6740357 66.8560335,34.6740357 L69.5192153,37.5526071 L69.7858915,35.4890357 C75.924454,44.2343929 79.2741926,54.3683214 74.9654938,67.1136786 M26.4243517,11.6779643 C29.9688176,13.29725 32.2443347,15.3458214 32.6584881,15.6554643 C32.4691301,14.7404643 31.7721926,10.3443929 31.3694938,7.61117857 C33.4356074,9.04367857 38.2311244,12.3629643 39.8068403,13.44225 C40.4490108,11.4658214 42.6765619,5.00939286 42.6765619,5.00939286 C42.6765619,5.00939286 46.6978233,11.5108214 47.3858119,12.5676071 C48.2266472,11.6901071 53.0368403,6.35225 54.2800165,5.00010714 C54.4908517,8.07189286 54.7750676,12.4676071 54.842721,13.1268929 C55.0893517,12.7993929 56.929954,10.22475 60.0173119,7.84975 C58.678204,10.4779643 58.0417608,14.1083214 57.7553972,17.0254643 C54.7188688,16.1783214 51.5187551,15.7240357 48.211971,15.7240357 C41.8686585,15.7240357 35.9165903,17.3918929 30.769204,20.3093929 C29.8331528,17.4965357 28.3687608,13.9926071 26.4243517,11.6779643" mask="url(#pl-logo-lion-b)"/>
  </g>
</svg>
